<?xml version="1.0" standalone="no"?>
<!DOCTYPE svg PUBLIC "-//W3C//DTD SVG 20010904//EN"
 "http://www.w3.org/TR/2001/REC-SVG-20010904/DTD/svg10.dtd">
<svg version="1.0" xmlns="http://www.w3.org/2000/svg"
 width="1119.000000pt" height="839.000000pt" viewBox="0 0 1119.000000 839.000000"
 preserveAspectRatio="xMidYMid meet">
<metadata>
Created by potrace 1.15, written by Peter Selinger 2001-2017
</metadata>
<g transform="translate(0.000000,839.000000) scale(0.100000,-0.100000)"
fill="#000000" stroke="none">
<path d="M1868 8380 c-97 -17 -149 -53 -286 -199 -70 -75 -150 -163 -177 -196
-27 -33 -52 -62 -55 -65 -45 -41 -265 -340 -372 -505 -831 -1282 -1138 -2779
-871 -4250 88 -486 221 -913 438 -1400 126 -284 345 -667 538 -940 242 -343
577 -724 683 -778 156 -79 337 -47 481 87 111 103 158 244 129 384 -19 91 -54
145 -192 297 -549 605 -932 1299 -1144 2075 -190 695 -226 1443 -104 2150 165
951 598 1831 1255 2549 128 142 142 161 168 239 36 106 23 232 -34 334 -57
102 -199 198 -321 218 -66 11 -69 11 -136 0z"/>
<path d="M9163 8375 c-132 -29 -254 -127 -314 -252 -27 -56 -33 -83 -37 -153
-7 -144 25 -208 193 -390 632 -683 1082 -1588 1244 -2500 87 -490 103 -1001
45 -1480 -124 -1036 -584 -2033 -1287 -2794 -113 -122 -152 -175 -171 -235
-53 -161 -15 -311 107 -433 173 -170 426 -179 584 -20 728 737 1270 1736 1507
2782 108 477 154 922 143 1405 -14 624 -106 1154 -298 1729 -181 542 -425
1032 -748 1501 -66 97 -274 371 -290 385 -4 3 -29 32 -56 65 -141 170 -299
327 -362 358 -45 23 -144 48 -182 46 -9 0 -44 -7 -78 -14z"/>
<path d="M3010 7284 c-81 -22 -126 -53 -222 -151 -422 -433 -768 -1015 -966
-1623 -323 -991 -272 -2051 144 -3009 198 -454 463 -857 806 -1224 113 -121
172 -158 279 -177 161 -28 335 52 433 199 67 101 87 241 51 353 -23 68 -39 91
-156 219 -502 550 -798 1187 -896 1928 -23 179 -23 596 0 789 87 711 389 1376
859 1890 132 145 173 204 192 273 46 162 -7 324 -142 436 -122 102 -246 134
-382 97z"/>
<path d="M7985 7285 c-75 -16 -134 -50 -208 -116 -143 -128 -179 -350 -84
-508 11 -19 71 -90 133 -158 496 -543 781 -1160 886 -1923 21 -150 17 -642 -5
-810 -52 -386 -152 -718 -316 -1055 -167 -342 -317 -562 -589 -863 -84 -92
-116 -136 -131 -177 -61 -163 -22 -326 107 -450 93 -89 155 -119 268 -131 129
-14 228 28 343 146 607 617 1022 1468 1150 2355 36 254 44 392 38 678 -6 273
-19 418 -58 642 -142 824 -545 1626 -1112 2212 -109 113 -164 146 -269 163
-76 12 -77 12 -153 -5z"/>
<path d="M4179 6196 c-67 -18 -126 -56 -199 -128 -280 -275 -508 -649 -639
-1047 -84 -254 -122 -473 -128 -747 -12 -466 70 -837 277 -1260 126 -256 279
-473 470 -666 121 -122 181 -157 285 -166 187 -15 395 119 454 291 56 164 23
302 -106 439 -303 323 -473 672 -523 1071 -16 123 -8 408 14 527 67 360 229
674 496 957 92 98 129 173 137 277 10 133 -27 229 -127 327 -120 119 -268 164
-411 125z"/>
<path d="M6815 6197 c-83 -22 -146 -59 -215 -127 -100 -100 -136 -191 -128
-324 7 -107 44 -180 153 -296 198 -212 333 -435 419 -692 146 -436 115 -918
-85 -1338 -90 -188 -166 -299 -330 -482 -106 -118 -132 -164 -150 -260 -24
-132 22 -262 129 -365 143 -137 320 -169 488 -87 92 45 292 268 441 492 171
258 297 548 376 867 185 743 13 1567 -460 2202 -46 62 -135 166 -199 232 -141
147 -201 182 -317 187 -40 2 -94 -2 -122 -9z"/>
<path d="M5465 5103 c-336 -47 -646 -327 -745 -674 -42 -145 -37 -358 12 -509
92 -285 330 -517 623 -606 80 -25 106 -28 240 -28 187 -1 277 18 420 90 245
123 434 369 490 634 19 89 19 283 1 370 -73 345 -371 642 -716 715 -66 14
-249 18 -325 8z"/>
</g>
</svg>
