%TF.GenerationSoftware,KiCad,Pcbnew,(5.1.8)-1*%
%TF.CreationDate,2020-11-22T08:19:10+01:00*%
%TF.ProjectId,leaky,6c65616b-792e-46b6-9963-61645f706362,rev?*%
%TF.SameCoordinates,Original*%
%TF.FileFunction,Paste,Top*%
%TF.FilePolarity,Positive*%
%FSLAX46Y46*%
G04 Gerber Fmt 4.6, Leading zero omitted, Abs format (unit mm)*
G04 Created by KiCad (PCBNEW (5.1.8)-1) date 2020-11-22 08:19:10*
%MOMM*%
%LPD*%
G01*
G04 APERTURE LIST*
%ADD10R,2.500000X1.100000*%
G04 APERTURE END LIST*
D10*
%TO.C,U2*%
X33000000Y-117900000D03*
X33000000Y-115900000D03*
X33000000Y-113900000D03*
X33000000Y-111900000D03*
X33000000Y-109900000D03*
X33000000Y-107900000D03*
X33000000Y-105900000D03*
X33000000Y-103900000D03*
X48400000Y-103900000D03*
X48400000Y-105900000D03*
X48400000Y-107900000D03*
X48400000Y-109900000D03*
X48400000Y-111900000D03*
X48400000Y-113900000D03*
X48400000Y-115900000D03*
X48400000Y-117900000D03*
%TD*%
%TO.C,C2*%
G36*
G01*
X52175000Y-98550000D02*
X51225000Y-98550000D01*
G75*
G02*
X50975000Y-98300000I0J250000D01*
G01*
X50975000Y-97625000D01*
G75*
G02*
X51225000Y-97375000I250000J0D01*
G01*
X52175000Y-97375000D01*
G75*
G02*
X52425000Y-97625000I0J-250000D01*
G01*
X52425000Y-98300000D01*
G75*
G02*
X52175000Y-98550000I-250000J0D01*
G01*
G37*
G36*
G01*
X52175000Y-100625000D02*
X51225000Y-100625000D01*
G75*
G02*
X50975000Y-100375000I0J250000D01*
G01*
X50975000Y-99700000D01*
G75*
G02*
X51225000Y-99450000I250000J0D01*
G01*
X52175000Y-99450000D01*
G75*
G02*
X52425000Y-99700000I0J-250000D01*
G01*
X52425000Y-100375000D01*
G75*
G02*
X52175000Y-100625000I-250000J0D01*
G01*
G37*
%TD*%
%TO.C,C3*%
G36*
G01*
X52275000Y-112212500D02*
X51325000Y-112212500D01*
G75*
G02*
X51075000Y-111962500I0J250000D01*
G01*
X51075000Y-111287500D01*
G75*
G02*
X51325000Y-111037500I250000J0D01*
G01*
X52275000Y-111037500D01*
G75*
G02*
X52525000Y-111287500I0J-250000D01*
G01*
X52525000Y-111962500D01*
G75*
G02*
X52275000Y-112212500I-250000J0D01*
G01*
G37*
G36*
G01*
X52275000Y-114287500D02*
X51325000Y-114287500D01*
G75*
G02*
X51075000Y-114037500I0J250000D01*
G01*
X51075000Y-113362500D01*
G75*
G02*
X51325000Y-113112500I250000J0D01*
G01*
X52275000Y-113112500D01*
G75*
G02*
X52525000Y-113362500I0J-250000D01*
G01*
X52525000Y-114037500D01*
G75*
G02*
X52275000Y-114287500I-250000J0D01*
G01*
G37*
%TD*%
%TO.C,C4*%
G36*
G01*
X51225000Y-103375000D02*
X52175000Y-103375000D01*
G75*
G02*
X52425000Y-103625000I0J-250000D01*
G01*
X52425000Y-104300000D01*
G75*
G02*
X52175000Y-104550000I-250000J0D01*
G01*
X51225000Y-104550000D01*
G75*
G02*
X50975000Y-104300000I0J250000D01*
G01*
X50975000Y-103625000D01*
G75*
G02*
X51225000Y-103375000I250000J0D01*
G01*
G37*
G36*
G01*
X51225000Y-105450000D02*
X52175000Y-105450000D01*
G75*
G02*
X52425000Y-105700000I0J-250000D01*
G01*
X52425000Y-106375000D01*
G75*
G02*
X52175000Y-106625000I-250000J0D01*
G01*
X51225000Y-106625000D01*
G75*
G02*
X50975000Y-106375000I0J250000D01*
G01*
X50975000Y-105700000D01*
G75*
G02*
X51225000Y-105450000I250000J0D01*
G01*
G37*
%TD*%
%TO.C,R1*%
G36*
G01*
X68549999Y-104750000D02*
X69450001Y-104750000D01*
G75*
G02*
X69700000Y-104999999I0J-249999D01*
G01*
X69700000Y-105650001D01*
G75*
G02*
X69450001Y-105900000I-249999J0D01*
G01*
X68549999Y-105900000D01*
G75*
G02*
X68300000Y-105650001I0J249999D01*
G01*
X68300000Y-104999999D01*
G75*
G02*
X68549999Y-104750000I249999J0D01*
G01*
G37*
G36*
G01*
X68549999Y-106800000D02*
X69450001Y-106800000D01*
G75*
G02*
X69700000Y-107049999I0J-249999D01*
G01*
X69700000Y-107700001D01*
G75*
G02*
X69450001Y-107950000I-249999J0D01*
G01*
X68549999Y-107950000D01*
G75*
G02*
X68300000Y-107700001I0J249999D01*
G01*
X68300000Y-107049999D01*
G75*
G02*
X68549999Y-106800000I249999J0D01*
G01*
G37*
%TD*%
%TO.C,R2*%
G36*
G01*
X59299999Y-111175000D02*
X60200001Y-111175000D01*
G75*
G02*
X60450000Y-111424999I0J-249999D01*
G01*
X60450000Y-112075001D01*
G75*
G02*
X60200001Y-112325000I-249999J0D01*
G01*
X59299999Y-112325000D01*
G75*
G02*
X59050000Y-112075001I0J249999D01*
G01*
X59050000Y-111424999D01*
G75*
G02*
X59299999Y-111175000I249999J0D01*
G01*
G37*
G36*
G01*
X59299999Y-113225000D02*
X60200001Y-113225000D01*
G75*
G02*
X60450000Y-113474999I0J-249999D01*
G01*
X60450000Y-114125001D01*
G75*
G02*
X60200001Y-114375000I-249999J0D01*
G01*
X59299999Y-114375000D01*
G75*
G02*
X59050000Y-114125001I0J249999D01*
G01*
X59050000Y-113474999D01*
G75*
G02*
X59299999Y-113225000I249999J0D01*
G01*
G37*
%TD*%
%TO.C,R3*%
G36*
G01*
X56700001Y-112325000D02*
X55799999Y-112325000D01*
G75*
G02*
X55550000Y-112075001I0J249999D01*
G01*
X55550000Y-111424999D01*
G75*
G02*
X55799999Y-111175000I249999J0D01*
G01*
X56700001Y-111175000D01*
G75*
G02*
X56950000Y-111424999I0J-249999D01*
G01*
X56950000Y-112075001D01*
G75*
G02*
X56700001Y-112325000I-249999J0D01*
G01*
G37*
G36*
G01*
X56700001Y-114375000D02*
X55799999Y-114375000D01*
G75*
G02*
X55550000Y-114125001I0J249999D01*
G01*
X55550000Y-113474999D01*
G75*
G02*
X55799999Y-113225000I249999J0D01*
G01*
X56700001Y-113225000D01*
G75*
G02*
X56950000Y-113474999I0J-249999D01*
G01*
X56950000Y-114125001D01*
G75*
G02*
X56700001Y-114375000I-249999J0D01*
G01*
G37*
%TD*%
%TO.C,R4*%
G36*
G01*
X53325000Y-118350001D02*
X53325000Y-117449999D01*
G75*
G02*
X53574999Y-117200000I249999J0D01*
G01*
X54225001Y-117200000D01*
G75*
G02*
X54475000Y-117449999I0J-249999D01*
G01*
X54475000Y-118350001D01*
G75*
G02*
X54225001Y-118600000I-249999J0D01*
G01*
X53574999Y-118600000D01*
G75*
G02*
X53325000Y-118350001I0J249999D01*
G01*
G37*
G36*
G01*
X51275000Y-118350001D02*
X51275000Y-117449999D01*
G75*
G02*
X51524999Y-117200000I249999J0D01*
G01*
X52175001Y-117200000D01*
G75*
G02*
X52425000Y-117449999I0J-249999D01*
G01*
X52425000Y-118350001D01*
G75*
G02*
X52175001Y-118600000I-249999J0D01*
G01*
X51524999Y-118600000D01*
G75*
G02*
X51275000Y-118350001I0J249999D01*
G01*
G37*
%TD*%
%TO.C,R5*%
G36*
G01*
X41650001Y-98550000D02*
X40749999Y-98550000D01*
G75*
G02*
X40500000Y-98300001I0J249999D01*
G01*
X40500000Y-97649999D01*
G75*
G02*
X40749999Y-97400000I249999J0D01*
G01*
X41650001Y-97400000D01*
G75*
G02*
X41900000Y-97649999I0J-249999D01*
G01*
X41900000Y-98300001D01*
G75*
G02*
X41650001Y-98550000I-249999J0D01*
G01*
G37*
G36*
G01*
X41650001Y-100600000D02*
X40749999Y-100600000D01*
G75*
G02*
X40500000Y-100350001I0J249999D01*
G01*
X40500000Y-99699999D01*
G75*
G02*
X40749999Y-99450000I249999J0D01*
G01*
X41650001Y-99450000D01*
G75*
G02*
X41900000Y-99699999I0J-249999D01*
G01*
X41900000Y-100350001D01*
G75*
G02*
X41650001Y-100600000I-249999J0D01*
G01*
G37*
%TD*%
%TO.C,R6*%
G36*
G01*
X48150001Y-100600000D02*
X47249999Y-100600000D01*
G75*
G02*
X47000000Y-100350001I0J249999D01*
G01*
X47000000Y-99699999D01*
G75*
G02*
X47249999Y-99450000I249999J0D01*
G01*
X48150001Y-99450000D01*
G75*
G02*
X48400000Y-99699999I0J-249999D01*
G01*
X48400000Y-100350001D01*
G75*
G02*
X48150001Y-100600000I-249999J0D01*
G01*
G37*
G36*
G01*
X48150001Y-98550000D02*
X47249999Y-98550000D01*
G75*
G02*
X47000000Y-98300001I0J249999D01*
G01*
X47000000Y-97649999D01*
G75*
G02*
X47249999Y-97400000I249999J0D01*
G01*
X48150001Y-97400000D01*
G75*
G02*
X48400000Y-97649999I0J-249999D01*
G01*
X48400000Y-98300001D01*
G75*
G02*
X48150001Y-98550000I-249999J0D01*
G01*
G37*
%TD*%
%TO.C,R7*%
G36*
G01*
X36550001Y-100575000D02*
X35649999Y-100575000D01*
G75*
G02*
X35400000Y-100325001I0J249999D01*
G01*
X35400000Y-99674999D01*
G75*
G02*
X35649999Y-99425000I249999J0D01*
G01*
X36550001Y-99425000D01*
G75*
G02*
X36800000Y-99674999I0J-249999D01*
G01*
X36800000Y-100325001D01*
G75*
G02*
X36550001Y-100575000I-249999J0D01*
G01*
G37*
G36*
G01*
X36550001Y-98525000D02*
X35649999Y-98525000D01*
G75*
G02*
X35400000Y-98275001I0J249999D01*
G01*
X35400000Y-97624999D01*
G75*
G02*
X35649999Y-97375000I249999J0D01*
G01*
X36550001Y-97375000D01*
G75*
G02*
X36800000Y-97624999I0J-249999D01*
G01*
X36800000Y-98275001D01*
G75*
G02*
X36550001Y-98525000I-249999J0D01*
G01*
G37*
%TD*%
M02*
