M48
; DRILL file {KiCad (5.1.8)-1} date 11/22/20 08:19:26
; FORMAT={-:-/ absolute / inch / decimal}
; #@! TF.CreationDate,2020-11-22T08:19:26+01:00
; #@! TF.GenerationSoftware,Kicad,Pcbnew,(5.1.8)-1
; #@! TF.FileFunction,Plated,1,2,PTH
FMAT,2
INCH
T1C0.0157
T2C0.0295
T3C0.0315
T4C0.0394
T5C0.0591
%
G90
G05
T1
X1.0709Y-4.3268
X1.2165Y-4.3268
X1.2244Y-4.0472
X1.2244Y-4.1299
X1.2244Y-4.0906
X1.374Y-4.0906
X1.3819Y-4.248
X1.4213Y-3.7913
X1.4803Y-4.248
X1.6969Y-2.8701
X1.6969Y-3.0472
X1.6969Y-3.7992
X1.6969Y-4.122
X1.7283Y-2.8976
X1.7283Y-3.0748
X1.7283Y-3.7756
X1.7283Y-4.1496
X1.7598Y-2.9291
X1.7598Y-3.1063
X1.7598Y-3.7992
X1.7598Y-4.122
X1.7913Y-2.9606
X1.7913Y-3.1378
X1.7913Y-3.7756
X1.7913Y-4.1496
X1.8228Y-2.9921
X1.8228Y-3.1693
X1.8228Y-3.7992
X1.8228Y-4.122
X2.0354Y-3.7913
X2.0354Y-4.2283
X2.0984Y-4.3937
X2.122Y-4.5669
X2.1575Y-4.3307
X2.4134Y-4.4803
T2
X2.565Y-4.1291
X2.565Y-4.1791
X2.565Y-4.2291
T3
X1.0197Y-1.2677
X1.0197Y-2.1378
X1.0197Y-3.4291
X1.0197Y-4.0512
X1.1535Y-4.6339
X1.2953Y-3.5315
X1.2953Y-3.6024
X1.3543Y-3.4331
X1.4213Y-3.4331
X1.4961Y-3.4331
X1.5394Y-1.2756
X1.5472Y-2.9606
X1.5748Y-3.4331
X1.6378Y-3.4331
X1.9331Y-3.3583
X2.0276Y-2.1417
X2.0276Y-2.9606
X2.0315Y-1.2756
X2.3228Y-3.6535
X2.4134Y-0.8898
X2.4134Y-2.9606
X2.4134Y-4.622
X2.4724Y-4.0394
X2.4961Y-3.5354
X2.5354Y-3.2992
X2.6181Y-3.2992
X2.6496Y-4.4016
X2.7244Y-1.2756
X2.7283Y-0.8898
X2.7441Y-2.9606
T4
X2.2835Y-4.1299
X2.2835Y-4.2299
X0.9094Y-3.7776
X1.2087Y-3.7776
X0.9843Y-4.1535
X0.9843Y-4.2535
X0.9843Y-2.502
X0.9843Y-2.602
X0.9843Y-2.702
X0.9843Y-2.802
X0.9843Y-1.4071
X0.9843Y-1.5071
X0.9843Y-1.6071
X0.9843Y-1.7071
X0.9843Y-1.8071
X2.6205Y-4.622
X2.7205Y-4.622
X2.4787Y-3.3748
X2.5787Y-3.3748
X2.6787Y-3.3748
X2.4705Y-3.8051
X2.6673Y-3.8051
T5
X1.4961Y-1.0098
X1.4961Y-3.5787
X2.0472Y-1.0098
X2.0472Y-3.5787
T0
M30
