%TF.GenerationSoftware,KiCad,Pcbnew,(5.1.8)-1*%
%TF.CreationDate,2020-11-22T08:19:10+01:00*%
%TF.ProjectId,leaky,6c65616b-792e-46b6-9963-61645f706362,rev?*%
%TF.SameCoordinates,Original*%
%TF.FileFunction,Legend,Top*%
%TF.FilePolarity,Positive*%
%FSLAX46Y46*%
G04 Gerber Fmt 4.6, Leading zero omitted, Abs format (unit mm)*
G04 Created by KiCad (PCBNEW (5.1.8)-1) date 2020-11-22 08:19:10*
%MOMM*%
%LPD*%
G01*
G04 APERTURE LIST*
%ADD10C,0.120000*%
%ADD11C,0.150000*%
%ADD12C,0.500000*%
%ADD13C,0.010000*%
%ADD14C,0.152400*%
%ADD15C,0.050000*%
%ADD16C,0.100000*%
%ADD17C,0.200000*%
G04 APERTURE END LIST*
D10*
X43700000Y-119200000D02*
X43700000Y-116600000D01*
X43100000Y-119200000D02*
X43700000Y-119200000D01*
X43100000Y-119200000D02*
X43100000Y-116600000D01*
X42600000Y-119200000D02*
X43100000Y-119200000D01*
X41600000Y-119200000D02*
X42600000Y-119200000D01*
X41600000Y-118100000D02*
X41600000Y-119200000D01*
X40600000Y-118100000D02*
X41600000Y-118100000D01*
X40600000Y-119100000D02*
X40600000Y-118100000D01*
X39600000Y-119100000D02*
X40600000Y-119100000D01*
X39600000Y-118100000D02*
X39600000Y-119100000D01*
X38600000Y-118100000D02*
X39600000Y-118100000D01*
X38600000Y-119100000D02*
X38600000Y-118100000D01*
X37600000Y-119100000D02*
X38600000Y-119100000D01*
X37600000Y-117300000D02*
X37600000Y-119100000D01*
D11*
X61164285Y-60871428D02*
X60497619Y-61109523D01*
X61164285Y-61347619D01*
X60497619Y-62252380D02*
X60497619Y-61680952D01*
X60497619Y-61966666D02*
X61497619Y-61966666D01*
X61354761Y-61871428D01*
X61259523Y-61776190D01*
X61211904Y-61680952D01*
X60592857Y-62680952D02*
X60545238Y-62728571D01*
X60497619Y-62680952D01*
X60545238Y-62633333D01*
X60592857Y-62680952D01*
X60497619Y-62680952D01*
X61497619Y-63347619D02*
X61497619Y-63442857D01*
X61450000Y-63538095D01*
X61402380Y-63585714D01*
X61307142Y-63633333D01*
X61116666Y-63680952D01*
X60878571Y-63680952D01*
X60688095Y-63633333D01*
X60592857Y-63585714D01*
X60545238Y-63538095D01*
X60497619Y-63442857D01*
X60497619Y-63347619D01*
X60545238Y-63252380D01*
X60592857Y-63204761D01*
X60688095Y-63157142D01*
X60878571Y-63109523D01*
X61116666Y-63109523D01*
X61307142Y-63157142D01*
X61402380Y-63204761D01*
X61450000Y-63252380D01*
X61497619Y-63347619D01*
X60547619Y-28223809D02*
X61547619Y-28223809D01*
X60547619Y-28652380D02*
X61071428Y-28652380D01*
X61166666Y-28604761D01*
X61214285Y-28509523D01*
X61214285Y-28366666D01*
X61166666Y-28271428D01*
X61119047Y-28223809D01*
X61214285Y-28985714D02*
X61214285Y-29366666D01*
X61547619Y-29128571D02*
X60690476Y-29128571D01*
X60595238Y-29176190D01*
X60547619Y-29271428D01*
X60547619Y-29366666D01*
X61214285Y-29557142D02*
X61214285Y-29938095D01*
X61547619Y-29700000D02*
X60690476Y-29700000D01*
X60595238Y-29747619D01*
X60547619Y-29842857D01*
X60547619Y-29938095D01*
X61214285Y-30271428D02*
X60214285Y-30271428D01*
X61166666Y-30271428D02*
X61214285Y-30366666D01*
X61214285Y-30557142D01*
X61166666Y-30652380D01*
X61119047Y-30700000D01*
X61023809Y-30747619D01*
X60738095Y-30747619D01*
X60642857Y-30700000D01*
X60595238Y-30652380D01*
X60547619Y-30557142D01*
X60547619Y-30366666D01*
X60595238Y-30271428D01*
X60595238Y-31128571D02*
X60547619Y-31223809D01*
X60547619Y-31414285D01*
X60595238Y-31509523D01*
X60690476Y-31557142D01*
X60738095Y-31557142D01*
X60833333Y-31509523D01*
X60880952Y-31414285D01*
X60880952Y-31271428D01*
X60928571Y-31176190D01*
X61023809Y-31128571D01*
X61071428Y-31128571D01*
X61166666Y-31176190D01*
X61214285Y-31271428D01*
X61214285Y-31414285D01*
X61166666Y-31509523D01*
X60642857Y-31985714D02*
X60595238Y-32033333D01*
X60547619Y-31985714D01*
X60595238Y-31938095D01*
X60642857Y-31985714D01*
X60547619Y-31985714D01*
X61166666Y-31985714D02*
X61119047Y-32033333D01*
X61071428Y-31985714D01*
X61119047Y-31938095D01*
X61166666Y-31985714D01*
X61071428Y-31985714D01*
X61595238Y-33176190D02*
X60309523Y-32319047D01*
X61595238Y-34223809D02*
X60309523Y-33366666D01*
X61214285Y-34985714D02*
X60404761Y-34985714D01*
X60309523Y-34938095D01*
X60261904Y-34890476D01*
X60214285Y-34795238D01*
X60214285Y-34652380D01*
X60261904Y-34557142D01*
X60595238Y-34985714D02*
X60547619Y-34890476D01*
X60547619Y-34700000D01*
X60595238Y-34604761D01*
X60642857Y-34557142D01*
X60738095Y-34509523D01*
X61023809Y-34509523D01*
X61119047Y-34557142D01*
X61166666Y-34604761D01*
X61214285Y-34700000D01*
X61214285Y-34890476D01*
X61166666Y-34985714D01*
X60547619Y-35461904D02*
X61214285Y-35461904D01*
X61547619Y-35461904D02*
X61500000Y-35414285D01*
X61452380Y-35461904D01*
X61500000Y-35509523D01*
X61547619Y-35461904D01*
X61452380Y-35461904D01*
X61214285Y-35795238D02*
X61214285Y-36176190D01*
X61547619Y-35938095D02*
X60690476Y-35938095D01*
X60595238Y-35985714D01*
X60547619Y-36080952D01*
X60547619Y-36176190D01*
X60547619Y-36509523D02*
X61547619Y-36509523D01*
X60547619Y-36938095D02*
X61071428Y-36938095D01*
X61166666Y-36890476D01*
X61214285Y-36795238D01*
X61214285Y-36652380D01*
X61166666Y-36557142D01*
X61119047Y-36509523D01*
X61214285Y-37842857D02*
X60547619Y-37842857D01*
X61214285Y-37414285D02*
X60690476Y-37414285D01*
X60595238Y-37461904D01*
X60547619Y-37557142D01*
X60547619Y-37700000D01*
X60595238Y-37795238D01*
X60642857Y-37842857D01*
X60547619Y-38319047D02*
X61547619Y-38319047D01*
X61166666Y-38319047D02*
X61214285Y-38414285D01*
X61214285Y-38604761D01*
X61166666Y-38700000D01*
X61119047Y-38747619D01*
X61023809Y-38795238D01*
X60738095Y-38795238D01*
X60642857Y-38747619D01*
X60595238Y-38700000D01*
X60547619Y-38604761D01*
X60547619Y-38414285D01*
X60595238Y-38319047D01*
X60642857Y-39223809D02*
X60595238Y-39271428D01*
X60547619Y-39223809D01*
X60595238Y-39176190D01*
X60642857Y-39223809D01*
X60547619Y-39223809D01*
X60595238Y-40128571D02*
X60547619Y-40033333D01*
X60547619Y-39842857D01*
X60595238Y-39747619D01*
X60642857Y-39700000D01*
X60738095Y-39652380D01*
X61023809Y-39652380D01*
X61119047Y-39700000D01*
X61166666Y-39747619D01*
X61214285Y-39842857D01*
X61214285Y-40033333D01*
X61166666Y-40128571D01*
X60547619Y-40700000D02*
X60595238Y-40604761D01*
X60642857Y-40557142D01*
X60738095Y-40509523D01*
X61023809Y-40509523D01*
X61119047Y-40557142D01*
X61166666Y-40604761D01*
X61214285Y-40700000D01*
X61214285Y-40842857D01*
X61166666Y-40938095D01*
X61119047Y-40985714D01*
X61023809Y-41033333D01*
X60738095Y-41033333D01*
X60642857Y-40985714D01*
X60595238Y-40938095D01*
X60547619Y-40842857D01*
X60547619Y-40700000D01*
X60547619Y-41461904D02*
X61214285Y-41461904D01*
X61119047Y-41461904D02*
X61166666Y-41509523D01*
X61214285Y-41604761D01*
X61214285Y-41747619D01*
X61166666Y-41842857D01*
X61071428Y-41890476D01*
X60547619Y-41890476D01*
X61071428Y-41890476D02*
X61166666Y-41938095D01*
X61214285Y-42033333D01*
X61214285Y-42176190D01*
X61166666Y-42271428D01*
X61071428Y-42319047D01*
X60547619Y-42319047D01*
X61595238Y-43509523D02*
X60309523Y-42652380D01*
X61214285Y-43700000D02*
X61214285Y-44080952D01*
X61547619Y-43842857D02*
X60690476Y-43842857D01*
X60595238Y-43890476D01*
X60547619Y-43985714D01*
X60547619Y-44080952D01*
X60547619Y-44842857D02*
X61071428Y-44842857D01*
X61166666Y-44795238D01*
X61214285Y-44700000D01*
X61214285Y-44509523D01*
X61166666Y-44414285D01*
X60595238Y-44842857D02*
X60547619Y-44747619D01*
X60547619Y-44509523D01*
X60595238Y-44414285D01*
X60690476Y-44366666D01*
X60785714Y-44366666D01*
X60880952Y-44414285D01*
X60928571Y-44509523D01*
X60928571Y-44747619D01*
X60976190Y-44842857D01*
X61214285Y-45319047D02*
X60547619Y-45319047D01*
X61119047Y-45319047D02*
X61166666Y-45366666D01*
X61214285Y-45461904D01*
X61214285Y-45604761D01*
X61166666Y-45700000D01*
X61071428Y-45747619D01*
X60547619Y-45747619D01*
X61214285Y-46080952D02*
X61214285Y-46461904D01*
X61547619Y-46223809D02*
X60690476Y-46223809D01*
X60595238Y-46271428D01*
X60547619Y-46366666D01*
X60547619Y-46461904D01*
X60595238Y-47176190D02*
X60547619Y-47080952D01*
X60547619Y-46890476D01*
X60595238Y-46795238D01*
X60690476Y-46747619D01*
X61071428Y-46747619D01*
X61166666Y-46795238D01*
X61214285Y-46890476D01*
X61214285Y-47080952D01*
X61166666Y-47176190D01*
X61071428Y-47223809D01*
X60976190Y-47223809D01*
X60880952Y-46747619D01*
X60595238Y-48080952D02*
X60547619Y-47985714D01*
X60547619Y-47795238D01*
X60595238Y-47700000D01*
X60642857Y-47652380D01*
X60738095Y-47604761D01*
X61023809Y-47604761D01*
X61119047Y-47652380D01*
X61166666Y-47700000D01*
X61214285Y-47795238D01*
X61214285Y-47985714D01*
X61166666Y-48080952D01*
X60547619Y-48509523D02*
X61547619Y-48509523D01*
X60928571Y-48604761D02*
X60547619Y-48890476D01*
X61214285Y-48890476D02*
X60833333Y-48509523D01*
X61214285Y-49223809D02*
X60547619Y-49461904D01*
X61214285Y-49700000D02*
X60547619Y-49461904D01*
X60309523Y-49366666D01*
X60261904Y-49319047D01*
X60214285Y-49223809D01*
X61595238Y-50795238D02*
X60309523Y-49938095D01*
X60595238Y-51509523D02*
X60547619Y-51414285D01*
X60547619Y-51223809D01*
X60595238Y-51128571D01*
X60690476Y-51080952D01*
X61071428Y-51080952D01*
X61166666Y-51128571D01*
X61214285Y-51223809D01*
X61214285Y-51414285D01*
X61166666Y-51509523D01*
X61071428Y-51557142D01*
X60976190Y-51557142D01*
X60880952Y-51080952D01*
X60547619Y-51985714D02*
X61214285Y-51985714D01*
X61119047Y-51985714D02*
X61166666Y-52033333D01*
X61214285Y-52128571D01*
X61214285Y-52271428D01*
X61166666Y-52366666D01*
X61071428Y-52414285D01*
X60547619Y-52414285D01*
X61071428Y-52414285D02*
X61166666Y-52461904D01*
X61214285Y-52557142D01*
X61214285Y-52700000D01*
X61166666Y-52795238D01*
X61071428Y-52842857D01*
X60547619Y-52842857D01*
X60547619Y-53319047D02*
X61547619Y-53319047D01*
X61166666Y-53319047D02*
X61214285Y-53414285D01*
X61214285Y-53604761D01*
X61166666Y-53700000D01*
X61119047Y-53747619D01*
X61023809Y-53795238D01*
X60738095Y-53795238D01*
X60642857Y-53747619D01*
X60595238Y-53700000D01*
X60547619Y-53604761D01*
X60547619Y-53414285D01*
X60595238Y-53319047D01*
X60595238Y-54604761D02*
X60547619Y-54509523D01*
X60547619Y-54319047D01*
X60595238Y-54223809D01*
X60690476Y-54176190D01*
X61071428Y-54176190D01*
X61166666Y-54223809D01*
X61214285Y-54319047D01*
X61214285Y-54509523D01*
X61166666Y-54604761D01*
X61071428Y-54652380D01*
X60976190Y-54652380D01*
X60880952Y-54176190D01*
X60547619Y-55509523D02*
X61547619Y-55509523D01*
X60595238Y-55509523D02*
X60547619Y-55414285D01*
X60547619Y-55223809D01*
X60595238Y-55128571D01*
X60642857Y-55080952D01*
X60738095Y-55033333D01*
X61023809Y-55033333D01*
X61119047Y-55080952D01*
X61166666Y-55128571D01*
X61214285Y-55223809D01*
X61214285Y-55414285D01*
X61166666Y-55509523D01*
X60547619Y-56414285D02*
X61547619Y-56414285D01*
X60595238Y-56414285D02*
X60547619Y-56319047D01*
X60547619Y-56128571D01*
X60595238Y-56033333D01*
X60642857Y-55985714D01*
X60738095Y-55938095D01*
X61023809Y-55938095D01*
X61119047Y-55985714D01*
X61166666Y-56033333D01*
X61214285Y-56128571D01*
X61214285Y-56319047D01*
X61166666Y-56414285D01*
X60595238Y-57271428D02*
X60547619Y-57176190D01*
X60547619Y-56985714D01*
X60595238Y-56890476D01*
X60690476Y-56842857D01*
X61071428Y-56842857D01*
X61166666Y-56890476D01*
X61214285Y-56985714D01*
X61214285Y-57176190D01*
X61166666Y-57271428D01*
X61071428Y-57319047D01*
X60976190Y-57319047D01*
X60880952Y-56842857D01*
X60547619Y-58176190D02*
X61547619Y-58176190D01*
X60595238Y-58176190D02*
X60547619Y-58080952D01*
X60547619Y-57890476D01*
X60595238Y-57795238D01*
X60642857Y-57747619D01*
X60738095Y-57700000D01*
X61023809Y-57700000D01*
X61119047Y-57747619D01*
X61166666Y-57795238D01*
X61214285Y-57890476D01*
X61214285Y-58080952D01*
X61166666Y-58176190D01*
X31680952Y-82052380D02*
X31680952Y-82766666D01*
X31633333Y-82909523D01*
X31538095Y-83004761D01*
X31395238Y-83052380D01*
X31300000Y-83052380D01*
X32633333Y-83052380D02*
X32157142Y-83052380D01*
X32157142Y-82052380D01*
X33538095Y-82957142D02*
X33490476Y-83004761D01*
X33347619Y-83052380D01*
X33252380Y-83052380D01*
X33109523Y-83004761D01*
X33014285Y-82909523D01*
X32966666Y-82814285D01*
X32919047Y-82623809D01*
X32919047Y-82480952D01*
X32966666Y-82290476D01*
X33014285Y-82195238D01*
X33109523Y-82100000D01*
X33252380Y-82052380D01*
X33347619Y-82052380D01*
X33490476Y-82100000D01*
X33538095Y-82147619D01*
X34252380Y-82052380D02*
X34252380Y-82766666D01*
X34204761Y-82909523D01*
X34109523Y-83004761D01*
X33966666Y-83052380D01*
X33871428Y-83052380D01*
X35204761Y-83052380D02*
X34728571Y-83052380D01*
X34728571Y-82052380D01*
X36109523Y-82957142D02*
X36061904Y-83004761D01*
X35919047Y-83052380D01*
X35823809Y-83052380D01*
X35680952Y-83004761D01*
X35585714Y-82909523D01*
X35538095Y-82814285D01*
X35490476Y-82623809D01*
X35490476Y-82480952D01*
X35538095Y-82290476D01*
X35585714Y-82195238D01*
X35680952Y-82100000D01*
X35823809Y-82052380D01*
X35919047Y-82052380D01*
X36061904Y-82100000D01*
X36109523Y-82147619D01*
X36823809Y-82052380D02*
X36823809Y-82766666D01*
X36776190Y-82909523D01*
X36680952Y-83004761D01*
X36538095Y-83052380D01*
X36442857Y-83052380D01*
X37776190Y-83052380D02*
X37300000Y-83052380D01*
X37300000Y-82052380D01*
X38680952Y-82957142D02*
X38633333Y-83004761D01*
X38490476Y-83052380D01*
X38395238Y-83052380D01*
X38252380Y-83004761D01*
X38157142Y-82909523D01*
X38109523Y-82814285D01*
X38061904Y-82623809D01*
X38061904Y-82480952D01*
X38109523Y-82290476D01*
X38157142Y-82195238D01*
X38252380Y-82100000D01*
X38395238Y-82052380D01*
X38490476Y-82052380D01*
X38633333Y-82100000D01*
X38680952Y-82147619D01*
X39395238Y-82052380D02*
X39395238Y-82766666D01*
X39347619Y-82909523D01*
X39252380Y-83004761D01*
X39109523Y-83052380D01*
X39014285Y-83052380D01*
X40347619Y-83052380D02*
X39871428Y-83052380D01*
X39871428Y-82052380D01*
X41252380Y-82957142D02*
X41204761Y-83004761D01*
X41061904Y-83052380D01*
X40966666Y-83052380D01*
X40823809Y-83004761D01*
X40728571Y-82909523D01*
X40680952Y-82814285D01*
X40633333Y-82623809D01*
X40633333Y-82480952D01*
X40680952Y-82290476D01*
X40728571Y-82195238D01*
X40823809Y-82100000D01*
X40966666Y-82052380D01*
X41061904Y-82052380D01*
X41204761Y-82100000D01*
X41252380Y-82147619D01*
X25372619Y-74107023D02*
X25848809Y-73773690D01*
X25372619Y-73535595D02*
X26372619Y-73535595D01*
X26372619Y-73916547D01*
X26325000Y-74011785D01*
X26277380Y-74059404D01*
X26182142Y-74107023D01*
X26039285Y-74107023D01*
X25944047Y-74059404D01*
X25896428Y-74011785D01*
X25848809Y-73916547D01*
X25848809Y-73535595D01*
X26372619Y-74440357D02*
X25372619Y-75107023D01*
X26372619Y-75107023D02*
X25372619Y-74440357D01*
X25372619Y-75487976D02*
X26372619Y-75487976D01*
X26372619Y-75726071D01*
X26325000Y-75868928D01*
X26229761Y-75964166D01*
X26134523Y-76011785D01*
X25944047Y-76059404D01*
X25801190Y-76059404D01*
X25610714Y-76011785D01*
X25515476Y-75964166D01*
X25420238Y-75868928D01*
X25372619Y-75726071D01*
X25372619Y-75487976D01*
X25753571Y-76487976D02*
X25753571Y-77249880D01*
X26039285Y-77726071D02*
X25753571Y-78487976D01*
X25467857Y-77726071D01*
X26372619Y-78821309D02*
X26372619Y-79392738D01*
X25372619Y-79107023D02*
X26372619Y-79107023D01*
X26372619Y-79630833D02*
X25372619Y-80297500D01*
X26372619Y-80297500D02*
X25372619Y-79630833D01*
X24722619Y-73392738D02*
X24722619Y-73964166D01*
X23722619Y-73678452D02*
X24722619Y-73678452D01*
X24722619Y-74202261D02*
X23722619Y-74868928D01*
X24722619Y-74868928D02*
X23722619Y-74202261D01*
X23722619Y-75249880D02*
X24722619Y-75249880D01*
X24722619Y-75487976D01*
X24675000Y-75630833D01*
X24579761Y-75726071D01*
X24484523Y-75773690D01*
X24294047Y-75821309D01*
X24151190Y-75821309D01*
X23960714Y-75773690D01*
X23865476Y-75726071D01*
X23770238Y-75630833D01*
X23722619Y-75487976D01*
X23722619Y-75249880D01*
X24103571Y-76249880D02*
X24103571Y-77011785D01*
X24389285Y-77487976D02*
X24103571Y-78249880D01*
X23817857Y-77487976D01*
X23722619Y-79297500D02*
X24198809Y-78964166D01*
X23722619Y-78726071D02*
X24722619Y-78726071D01*
X24722619Y-79107023D01*
X24675000Y-79202261D01*
X24627380Y-79249880D01*
X24532142Y-79297500D01*
X24389285Y-79297500D01*
X24294047Y-79249880D01*
X24246428Y-79202261D01*
X24198809Y-79107023D01*
X24198809Y-78726071D01*
X24722619Y-79630833D02*
X23722619Y-80297500D01*
X24722619Y-80297500D02*
X23722619Y-79630833D01*
X69142857Y-91052380D02*
X69476190Y-92052380D01*
X69809523Y-91052380D01*
X70333333Y-91052380D02*
X70523809Y-91052380D01*
X70619047Y-91100000D01*
X70714285Y-91195238D01*
X70761904Y-91385714D01*
X70761904Y-91719047D01*
X70714285Y-91909523D01*
X70619047Y-92004761D01*
X70523809Y-92052380D01*
X70333333Y-92052380D01*
X70238095Y-92004761D01*
X70142857Y-91909523D01*
X70095238Y-91719047D01*
X70095238Y-91385714D01*
X70142857Y-91195238D01*
X70238095Y-91100000D01*
X70333333Y-91052380D01*
X55061904Y-95752380D02*
X55680952Y-95752380D01*
X55347619Y-96133333D01*
X55490476Y-96133333D01*
X55585714Y-96180952D01*
X55633333Y-96228571D01*
X55680952Y-96323809D01*
X55680952Y-96561904D01*
X55633333Y-96657142D01*
X55585714Y-96704761D01*
X55490476Y-96752380D01*
X55204761Y-96752380D01*
X55109523Y-96704761D01*
X55061904Y-96657142D01*
X55966666Y-95752380D02*
X56300000Y-96752380D01*
X56633333Y-95752380D01*
X56871428Y-95752380D02*
X57490476Y-95752380D01*
X57157142Y-96133333D01*
X57300000Y-96133333D01*
X57395238Y-96180952D01*
X57442857Y-96228571D01*
X57490476Y-96323809D01*
X57490476Y-96561904D01*
X57442857Y-96657142D01*
X57395238Y-96704761D01*
X57300000Y-96752380D01*
X57014285Y-96752380D01*
X56919047Y-96704761D01*
X56871428Y-96657142D01*
X60028571Y-91052380D02*
X60361904Y-92052380D01*
X60695238Y-91052380D01*
X61028571Y-92052380D02*
X61028571Y-91052380D01*
X64638095Y-73000000D02*
X64542857Y-72952380D01*
X64400000Y-72952380D01*
X64257142Y-73000000D01*
X64161904Y-73095238D01*
X64114285Y-73190476D01*
X64066666Y-73380952D01*
X64066666Y-73523809D01*
X64114285Y-73714285D01*
X64161904Y-73809523D01*
X64257142Y-73904761D01*
X64400000Y-73952380D01*
X64495238Y-73952380D01*
X64638095Y-73904761D01*
X64685714Y-73857142D01*
X64685714Y-73523809D01*
X64495238Y-73523809D01*
X65114285Y-73952380D02*
X65114285Y-72952380D01*
X65685714Y-73952380D01*
X65685714Y-72952380D01*
X66161904Y-73952380D02*
X66161904Y-72952380D01*
X66400000Y-72952380D01*
X66542857Y-73000000D01*
X66638095Y-73095238D01*
X66685714Y-73190476D01*
X66733333Y-73380952D01*
X66733333Y-73523809D01*
X66685714Y-73714285D01*
X66638095Y-73809523D01*
X66542857Y-73904761D01*
X66400000Y-73952380D01*
X66161904Y-73952380D01*
X22214285Y-46090476D02*
X21547619Y-46090476D01*
X22595238Y-45852380D02*
X21880952Y-45614285D01*
X21880952Y-46233333D01*
X21547619Y-43309523D02*
X21547619Y-42738095D01*
X21547619Y-43023809D02*
X22547619Y-43023809D01*
X22404761Y-42928571D01*
X22309523Y-42833333D01*
X22261904Y-42738095D01*
X22547619Y-44166666D02*
X22547619Y-43976190D01*
X22500000Y-43880952D01*
X22452380Y-43833333D01*
X22309523Y-43738095D01*
X22119047Y-43690476D01*
X21738095Y-43690476D01*
X21642857Y-43738095D01*
X21595238Y-43785714D01*
X21547619Y-43880952D01*
X21547619Y-44071428D01*
X21595238Y-44166666D01*
X21642857Y-44214285D01*
X21738095Y-44261904D01*
X21976190Y-44261904D01*
X22071428Y-44214285D01*
X22119047Y-44166666D01*
X22166666Y-44071428D01*
X22166666Y-43880952D01*
X22119047Y-43785714D01*
X22071428Y-43738095D01*
X21976190Y-43690476D01*
X21547619Y-40559523D02*
X21547619Y-39988095D01*
X21547619Y-40273809D02*
X22547619Y-40273809D01*
X22404761Y-40178571D01*
X22309523Y-40083333D01*
X22261904Y-39988095D01*
X22214285Y-41416666D02*
X21547619Y-41416666D01*
X22595238Y-41178571D02*
X21880952Y-40940476D01*
X21880952Y-41559523D01*
X21547619Y-38059523D02*
X21547619Y-37488095D01*
X21547619Y-37773809D02*
X22547619Y-37773809D01*
X22404761Y-37678571D01*
X22309523Y-37583333D01*
X22261904Y-37488095D01*
X22452380Y-38440476D02*
X22500000Y-38488095D01*
X22547619Y-38583333D01*
X22547619Y-38821428D01*
X22500000Y-38916666D01*
X22452380Y-38964285D01*
X22357142Y-39011904D01*
X22261904Y-39011904D01*
X22119047Y-38964285D01*
X21547619Y-38392857D01*
X21547619Y-39011904D01*
X21547619Y-35559523D02*
X21547619Y-34988095D01*
X21547619Y-35273809D02*
X22547619Y-35273809D01*
X22404761Y-35178571D01*
X22309523Y-35083333D01*
X22261904Y-34988095D01*
X22547619Y-35892857D02*
X22547619Y-36511904D01*
X22166666Y-36178571D01*
X22166666Y-36321428D01*
X22119047Y-36416666D01*
X22071428Y-36464285D01*
X21976190Y-36511904D01*
X21738095Y-36511904D01*
X21642857Y-36464285D01*
X21595238Y-36416666D01*
X21547619Y-36321428D01*
X21547619Y-36035714D01*
X21595238Y-35940476D01*
X21642857Y-35892857D01*
X22547619Y-67838095D02*
X22547619Y-68409523D01*
X21547619Y-68123809D02*
X22547619Y-68123809D01*
X22547619Y-68647619D02*
X21547619Y-69314285D01*
X22547619Y-69314285D02*
X21547619Y-68647619D01*
X21547619Y-65933333D02*
X22023809Y-65600000D01*
X21547619Y-65361904D02*
X22547619Y-65361904D01*
X22547619Y-65742857D01*
X22500000Y-65838095D01*
X22452380Y-65885714D01*
X22357142Y-65933333D01*
X22214285Y-65933333D01*
X22119047Y-65885714D01*
X22071428Y-65838095D01*
X22023809Y-65742857D01*
X22023809Y-65361904D01*
X22547619Y-66266666D02*
X21547619Y-66933333D01*
X22547619Y-66933333D02*
X21547619Y-66266666D01*
X22500000Y-70638095D02*
X22547619Y-70542857D01*
X22547619Y-70400000D01*
X22500000Y-70257142D01*
X22404761Y-70161904D01*
X22309523Y-70114285D01*
X22119047Y-70066666D01*
X21976190Y-70066666D01*
X21785714Y-70114285D01*
X21690476Y-70161904D01*
X21595238Y-70257142D01*
X21547619Y-70400000D01*
X21547619Y-70495238D01*
X21595238Y-70638095D01*
X21642857Y-70685714D01*
X21976190Y-70685714D01*
X21976190Y-70495238D01*
X21547619Y-71114285D02*
X22547619Y-71114285D01*
X21547619Y-71685714D01*
X22547619Y-71685714D01*
X21547619Y-72161904D02*
X22547619Y-72161904D01*
X22547619Y-72400000D01*
X22500000Y-72542857D01*
X22404761Y-72638095D01*
X22309523Y-72685714D01*
X22119047Y-72733333D01*
X21976190Y-72733333D01*
X21785714Y-72685714D01*
X21690476Y-72638095D01*
X21595238Y-72542857D01*
X21547619Y-72400000D01*
X21547619Y-72161904D01*
X22547619Y-60866666D02*
X21547619Y-61200000D01*
X22547619Y-61533333D01*
X22071428Y-62200000D02*
X22023809Y-62342857D01*
X21976190Y-62390476D01*
X21880952Y-62438095D01*
X21738095Y-62438095D01*
X21642857Y-62390476D01*
X21595238Y-62342857D01*
X21547619Y-62247619D01*
X21547619Y-61866666D01*
X22547619Y-61866666D01*
X22547619Y-62200000D01*
X22500000Y-62295238D01*
X22452380Y-62342857D01*
X22357142Y-62390476D01*
X22261904Y-62390476D01*
X22166666Y-62342857D01*
X22119047Y-62295238D01*
X22071428Y-62200000D01*
X22071428Y-61866666D01*
X22547619Y-62866666D02*
X21738095Y-62866666D01*
X21642857Y-62914285D01*
X21595238Y-62961904D01*
X21547619Y-63057142D01*
X21547619Y-63247619D01*
X21595238Y-63342857D01*
X21642857Y-63390476D01*
X21738095Y-63438095D01*
X22547619Y-63438095D01*
X21595238Y-63866666D02*
X21547619Y-64009523D01*
X21547619Y-64247619D01*
X21595238Y-64342857D01*
X21642857Y-64390476D01*
X21738095Y-64438095D01*
X21833333Y-64438095D01*
X21928571Y-64390476D01*
X21976190Y-64342857D01*
X22023809Y-64247619D01*
X22071428Y-64057142D01*
X22119047Y-63961904D01*
X22166666Y-63914285D01*
X22261904Y-63866666D01*
X22357142Y-63866666D01*
X22452380Y-63914285D01*
X22500000Y-63961904D01*
X22547619Y-64057142D01*
X22547619Y-64295238D01*
X22500000Y-64438095D01*
X67142857Y-83252380D02*
X67476190Y-84252380D01*
X67809523Y-83252380D01*
X68333333Y-83252380D02*
X68523809Y-83252380D01*
X68619047Y-83300000D01*
X68714285Y-83395238D01*
X68761904Y-83585714D01*
X68761904Y-83919047D01*
X68714285Y-84109523D01*
X68619047Y-84204761D01*
X68523809Y-84252380D01*
X68333333Y-84252380D01*
X68238095Y-84204761D01*
X68142857Y-84109523D01*
X68095238Y-83919047D01*
X68095238Y-83585714D01*
X68142857Y-83395238D01*
X68238095Y-83300000D01*
X68333333Y-83252380D01*
X62228571Y-83252380D02*
X62561904Y-84252380D01*
X62895238Y-83252380D01*
X63228571Y-84252380D02*
X63228571Y-83252380D01*
D12*
X50600000Y-118900000D02*
G75*
G03*
X50600000Y-118900000I-200000J0D01*
G01*
D11*
X24342857Y-98528571D02*
X24485714Y-98576190D01*
X24533333Y-98623809D01*
X24580952Y-98719047D01*
X24580952Y-98861904D01*
X24533333Y-98957142D01*
X24485714Y-99004761D01*
X24390476Y-99052380D01*
X24009523Y-99052380D01*
X24009523Y-98052380D01*
X24342857Y-98052380D01*
X24438095Y-98100000D01*
X24485714Y-98147619D01*
X24533333Y-98242857D01*
X24533333Y-98338095D01*
X24485714Y-98433333D01*
X24438095Y-98480952D01*
X24342857Y-98528571D01*
X24009523Y-98528571D01*
X25009523Y-98052380D02*
X25009523Y-98861904D01*
X25057142Y-98957142D01*
X25104761Y-99004761D01*
X25200000Y-99052380D01*
X25390476Y-99052380D01*
X25485714Y-99004761D01*
X25533333Y-98957142D01*
X25580952Y-98861904D01*
X25580952Y-98052380D01*
X25961904Y-98052380D02*
X26628571Y-98052380D01*
X25961904Y-99052380D01*
X26628571Y-99052380D01*
X26914285Y-98052380D02*
X27580952Y-98052380D01*
X26914285Y-99052380D01*
X27580952Y-99052380D01*
X27961904Y-98528571D02*
X28295238Y-98528571D01*
X28438095Y-99052380D02*
X27961904Y-99052380D01*
X27961904Y-98052380D01*
X28438095Y-98052380D01*
X29438095Y-99052380D02*
X29104761Y-98576190D01*
X28866666Y-99052380D02*
X28866666Y-98052380D01*
X29247619Y-98052380D01*
X29342857Y-98100000D01*
X29390476Y-98147619D01*
X29438095Y-98242857D01*
X29438095Y-98385714D01*
X29390476Y-98480952D01*
X29342857Y-98528571D01*
X29247619Y-98576190D01*
X28866666Y-98576190D01*
X28585714Y-34457142D02*
X28585714Y-34857142D01*
X27957142Y-35028571D02*
X27957142Y-34457142D01*
X29157142Y-34457142D01*
X29157142Y-35028571D01*
X29157142Y-35428571D02*
X27957142Y-36228571D01*
X29157142Y-36228571D02*
X27957142Y-35428571D01*
X29157142Y-36514285D02*
X29157142Y-37200000D01*
X27957142Y-36857142D02*
X29157142Y-36857142D01*
X27957142Y-38285714D02*
X28528571Y-37885714D01*
X27957142Y-37600000D02*
X29157142Y-37600000D01*
X29157142Y-38057142D01*
X29100000Y-38171428D01*
X29042857Y-38228571D01*
X28928571Y-38285714D01*
X28757142Y-38285714D01*
X28642857Y-38228571D01*
X28585714Y-38171428D01*
X28528571Y-38057142D01*
X28528571Y-37600000D01*
X28300000Y-38742857D02*
X28300000Y-39314285D01*
X27957142Y-38628571D02*
X29157142Y-39028571D01*
X27957142Y-39428571D01*
X27842857Y-39542857D02*
X27842857Y-40457142D01*
X27957142Y-40742857D02*
X29157142Y-40742857D01*
X29157142Y-41200000D01*
X29100000Y-41314285D01*
X29042857Y-41371428D01*
X28928571Y-41428571D01*
X28757142Y-41428571D01*
X28642857Y-41371428D01*
X28585714Y-41314285D01*
X28528571Y-41200000D01*
X28528571Y-40742857D01*
X27957142Y-41942857D02*
X29157142Y-41942857D01*
X27957142Y-42514285D02*
X29157142Y-42514285D01*
X27957142Y-43200000D01*
X29157142Y-43200000D01*
X28014285Y-43714285D02*
X27957142Y-43885714D01*
X27957142Y-44171428D01*
X28014285Y-44285714D01*
X28071428Y-44342857D01*
X28185714Y-44400000D01*
X28300000Y-44400000D01*
X28414285Y-44342857D01*
X28471428Y-44285714D01*
X28528571Y-44171428D01*
X28585714Y-43942857D01*
X28642857Y-43828571D01*
X28700000Y-43771428D01*
X28814285Y-43714285D01*
X28928571Y-43714285D01*
X29042857Y-43771428D01*
X29100000Y-43828571D01*
X29157142Y-43942857D01*
X29157142Y-44228571D01*
X29100000Y-44400000D01*
X26272619Y-57907261D02*
X26272619Y-58526309D01*
X25891666Y-58192976D01*
X25891666Y-58335833D01*
X25844047Y-58431071D01*
X25796428Y-58478690D01*
X25701190Y-58526309D01*
X25463095Y-58526309D01*
X25367857Y-58478690D01*
X25320238Y-58431071D01*
X25272619Y-58335833D01*
X25272619Y-58050119D01*
X25320238Y-57954880D01*
X25367857Y-57907261D01*
X26272619Y-58812023D02*
X25272619Y-59145357D01*
X26272619Y-59478690D01*
X26272619Y-59716785D02*
X26272619Y-60335833D01*
X25891666Y-60002500D01*
X25891666Y-60145357D01*
X25844047Y-60240595D01*
X25796428Y-60288214D01*
X25701190Y-60335833D01*
X25463095Y-60335833D01*
X25367857Y-60288214D01*
X25320238Y-60240595D01*
X25272619Y-60145357D01*
X25272619Y-59859642D01*
X25320238Y-59764404D01*
X25367857Y-59716785D01*
X25367857Y-60764404D02*
X25320238Y-60812023D01*
X25272619Y-60764404D01*
X25320238Y-60716785D01*
X25367857Y-60764404D01*
X25272619Y-60764404D01*
X25653571Y-60764404D02*
X26225000Y-60716785D01*
X26272619Y-60764404D01*
X26225000Y-60812023D01*
X25653571Y-60764404D01*
X26272619Y-60764404D01*
X23622619Y-52573928D02*
X24098809Y-52240595D01*
X23622619Y-52002500D02*
X24622619Y-52002500D01*
X24622619Y-52383452D01*
X24575000Y-52478690D01*
X24527380Y-52526309D01*
X24432142Y-52573928D01*
X24289285Y-52573928D01*
X24194047Y-52526309D01*
X24146428Y-52478690D01*
X24098809Y-52383452D01*
X24098809Y-52002500D01*
X24146428Y-53002500D02*
X24146428Y-53335833D01*
X23622619Y-53478690D02*
X23622619Y-53002500D01*
X24622619Y-53002500D01*
X24622619Y-53478690D01*
X23622619Y-53907261D02*
X24622619Y-53907261D01*
X23908333Y-54240595D01*
X24622619Y-54573928D01*
X23622619Y-54573928D01*
X24622619Y-55240595D02*
X24622619Y-55431071D01*
X24575000Y-55526309D01*
X24479761Y-55621547D01*
X24289285Y-55669166D01*
X23955952Y-55669166D01*
X23765476Y-55621547D01*
X23670238Y-55526309D01*
X23622619Y-55431071D01*
X23622619Y-55240595D01*
X23670238Y-55145357D01*
X23765476Y-55050119D01*
X23955952Y-55002500D01*
X24289285Y-55002500D01*
X24479761Y-55050119D01*
X24575000Y-55145357D01*
X24622619Y-55240595D01*
X24622619Y-55954880D02*
X23622619Y-56288214D01*
X24622619Y-56621547D01*
X24146428Y-56954880D02*
X24146428Y-57288214D01*
X23622619Y-57431071D02*
X23622619Y-56954880D01*
X24622619Y-56954880D01*
X24622619Y-57431071D01*
X24146428Y-58954880D02*
X24098809Y-59097738D01*
X24051190Y-59145357D01*
X23955952Y-59192976D01*
X23813095Y-59192976D01*
X23717857Y-59145357D01*
X23670238Y-59097738D01*
X23622619Y-59002500D01*
X23622619Y-58621547D01*
X24622619Y-58621547D01*
X24622619Y-58954880D01*
X24575000Y-59050119D01*
X24527380Y-59097738D01*
X24432142Y-59145357D01*
X24336904Y-59145357D01*
X24241666Y-59097738D01*
X24194047Y-59050119D01*
X24146428Y-58954880D01*
X24146428Y-58621547D01*
X23908333Y-59573928D02*
X23908333Y-60050119D01*
X23622619Y-59478690D02*
X24622619Y-59812023D01*
X23622619Y-60145357D01*
X24622619Y-60335833D02*
X24622619Y-60907261D01*
X23622619Y-60621547D02*
X24622619Y-60621547D01*
D13*
%TO.C,G\u002A\u002A\u002A*%
G36*
X65464611Y-58983733D02*
G01*
X65476617Y-58984722D01*
X65676039Y-59014108D01*
X65781072Y-59091643D01*
X65841125Y-59267177D01*
X65863418Y-59374969D01*
X65938580Y-59631113D01*
X66067504Y-59786855D01*
X66221576Y-59875628D01*
X66404431Y-59952808D01*
X66540209Y-59958491D01*
X66699959Y-59883044D01*
X66841889Y-59791506D01*
X67048698Y-59662628D01*
X67169047Y-59623731D01*
X67254107Y-59666151D01*
X67298568Y-59714180D01*
X67453263Y-59926154D01*
X67485464Y-60098292D01*
X67402646Y-60299309D01*
X67368410Y-60356374D01*
X67259349Y-60557726D01*
X67241587Y-60712997D01*
X67306976Y-60913160D01*
X67316498Y-60936095D01*
X67428396Y-61138823D01*
X67585020Y-61241786D01*
X67782372Y-61286599D01*
X68000150Y-61331643D01*
X68097968Y-61409010D01*
X68123770Y-61572966D01*
X68124667Y-61674018D01*
X68114202Y-61885193D01*
X68051581Y-61993347D01*
X67889960Y-62051927D01*
X67771960Y-62076452D01*
X67532938Y-62144379D01*
X67399182Y-62258547D01*
X67316588Y-62441268D01*
X67259670Y-62665625D01*
X67291211Y-62845291D01*
X67379337Y-63010643D01*
X67482407Y-63196383D01*
X67495044Y-63320781D01*
X67414317Y-63467466D01*
X67360669Y-63543472D01*
X67176587Y-63801991D01*
X66876840Y-63573363D01*
X66658041Y-63431073D01*
X66508458Y-63402819D01*
X66442286Y-63429770D01*
X66336821Y-63457813D01*
X66254522Y-63360947D01*
X66209106Y-63252569D01*
X66102401Y-62975726D01*
X65999562Y-62718055D01*
X65935524Y-62519305D01*
X65964929Y-62382051D01*
X66080255Y-62241544D01*
X66226833Y-61975943D01*
X66263336Y-61653377D01*
X66194527Y-61336307D01*
X66025166Y-61087197D01*
X65990075Y-61058575D01*
X65661329Y-60911269D01*
X65310169Y-60917576D01*
X65009925Y-61058575D01*
X64825344Y-61291492D01*
X64740573Y-61602089D01*
X64760374Y-61927904D01*
X64889508Y-62206475D01*
X64919745Y-62241544D01*
X65043939Y-62398028D01*
X65061471Y-62537947D01*
X65000438Y-62718055D01*
X64888462Y-62999033D01*
X64790894Y-63252569D01*
X64706455Y-63424926D01*
X64617485Y-63458213D01*
X64557714Y-63429770D01*
X64428004Y-63402640D01*
X64251470Y-63482148D01*
X64123160Y-63573363D01*
X63823413Y-63801991D01*
X63639331Y-63543472D01*
X63455249Y-63284952D01*
X63623017Y-63010643D01*
X63727200Y-62813880D01*
X63741764Y-62656627D01*
X63673658Y-62446246D01*
X63666664Y-62428845D01*
X63555003Y-62217230D01*
X63401195Y-62112059D01*
X63208938Y-62068011D01*
X62994761Y-62022854D01*
X62899974Y-61942282D01*
X62875991Y-61769493D01*
X62875333Y-61678000D01*
X62885627Y-61462196D01*
X62948467Y-61355940D01*
X63111786Y-61304421D01*
X63217627Y-61286599D01*
X63457373Y-61224765D01*
X63597955Y-61104123D01*
X63683502Y-60936095D01*
X63755859Y-60727574D01*
X63745787Y-60572000D01*
X63645138Y-60378397D01*
X63631590Y-60356374D01*
X63523574Y-60139139D01*
X63528873Y-59966462D01*
X63654960Y-59769628D01*
X63701432Y-59714180D01*
X63788316Y-59634530D01*
X63885105Y-59632628D01*
X64043553Y-59716967D01*
X64153310Y-59788328D01*
X64369350Y-59918423D01*
X64522401Y-59958427D01*
X64683693Y-59921492D01*
X64744212Y-59897427D01*
X65001630Y-59705923D01*
X65139015Y-59399724D01*
X65161333Y-59169710D01*
X65178735Y-59032335D01*
X65263532Y-58979904D01*
X65464611Y-58983733D01*
G37*
X65464611Y-58983733D02*
X65476617Y-58984722D01*
X65676039Y-59014108D01*
X65781072Y-59091643D01*
X65841125Y-59267177D01*
X65863418Y-59374969D01*
X65938580Y-59631113D01*
X66067504Y-59786855D01*
X66221576Y-59875628D01*
X66404431Y-59952808D01*
X66540209Y-59958491D01*
X66699959Y-59883044D01*
X66841889Y-59791506D01*
X67048698Y-59662628D01*
X67169047Y-59623731D01*
X67254107Y-59666151D01*
X67298568Y-59714180D01*
X67453263Y-59926154D01*
X67485464Y-60098292D01*
X67402646Y-60299309D01*
X67368410Y-60356374D01*
X67259349Y-60557726D01*
X67241587Y-60712997D01*
X67306976Y-60913160D01*
X67316498Y-60936095D01*
X67428396Y-61138823D01*
X67585020Y-61241786D01*
X67782372Y-61286599D01*
X68000150Y-61331643D01*
X68097968Y-61409010D01*
X68123770Y-61572966D01*
X68124667Y-61674018D01*
X68114202Y-61885193D01*
X68051581Y-61993347D01*
X67889960Y-62051927D01*
X67771960Y-62076452D01*
X67532938Y-62144379D01*
X67399182Y-62258547D01*
X67316588Y-62441268D01*
X67259670Y-62665625D01*
X67291211Y-62845291D01*
X67379337Y-63010643D01*
X67482407Y-63196383D01*
X67495044Y-63320781D01*
X67414317Y-63467466D01*
X67360669Y-63543472D01*
X67176587Y-63801991D01*
X66876840Y-63573363D01*
X66658041Y-63431073D01*
X66508458Y-63402819D01*
X66442286Y-63429770D01*
X66336821Y-63457813D01*
X66254522Y-63360947D01*
X66209106Y-63252569D01*
X66102401Y-62975726D01*
X65999562Y-62718055D01*
X65935524Y-62519305D01*
X65964929Y-62382051D01*
X66080255Y-62241544D01*
X66226833Y-61975943D01*
X66263336Y-61653377D01*
X66194527Y-61336307D01*
X66025166Y-61087197D01*
X65990075Y-61058575D01*
X65661329Y-60911269D01*
X65310169Y-60917576D01*
X65009925Y-61058575D01*
X64825344Y-61291492D01*
X64740573Y-61602089D01*
X64760374Y-61927904D01*
X64889508Y-62206475D01*
X64919745Y-62241544D01*
X65043939Y-62398028D01*
X65061471Y-62537947D01*
X65000438Y-62718055D01*
X64888462Y-62999033D01*
X64790894Y-63252569D01*
X64706455Y-63424926D01*
X64617485Y-63458213D01*
X64557714Y-63429770D01*
X64428004Y-63402640D01*
X64251470Y-63482148D01*
X64123160Y-63573363D01*
X63823413Y-63801991D01*
X63639331Y-63543472D01*
X63455249Y-63284952D01*
X63623017Y-63010643D01*
X63727200Y-62813880D01*
X63741764Y-62656627D01*
X63673658Y-62446246D01*
X63666664Y-62428845D01*
X63555003Y-62217230D01*
X63401195Y-62112059D01*
X63208938Y-62068011D01*
X62994761Y-62022854D01*
X62899974Y-61942282D01*
X62875991Y-61769493D01*
X62875333Y-61678000D01*
X62885627Y-61462196D01*
X62948467Y-61355940D01*
X63111786Y-61304421D01*
X63217627Y-61286599D01*
X63457373Y-61224765D01*
X63597955Y-61104123D01*
X63683502Y-60936095D01*
X63755859Y-60727574D01*
X63745787Y-60572000D01*
X63645138Y-60378397D01*
X63631590Y-60356374D01*
X63523574Y-60139139D01*
X63528873Y-59966462D01*
X63654960Y-59769628D01*
X63701432Y-59714180D01*
X63788316Y-59634530D01*
X63885105Y-59632628D01*
X64043553Y-59716967D01*
X64153310Y-59788328D01*
X64369350Y-59918423D01*
X64522401Y-59958427D01*
X64683693Y-59921492D01*
X64744212Y-59897427D01*
X65001630Y-59705923D01*
X65139015Y-59399724D01*
X65161333Y-59169710D01*
X65178735Y-59032335D01*
X65263532Y-58979904D01*
X65464611Y-58983733D01*
G36*
X64449824Y-51704328D02*
G01*
X64634184Y-51904391D01*
X64862078Y-52239076D01*
X65057266Y-52565536D01*
X65442116Y-53232073D01*
X65816536Y-52463247D01*
X66039407Y-52039920D01*
X66226755Y-51767459D01*
X66390986Y-51634321D01*
X66544509Y-51628965D01*
X66647063Y-51690705D01*
X66753248Y-51854086D01*
X66770000Y-51943966D01*
X66734028Y-52067382D01*
X66634416Y-52313695D01*
X66483617Y-52654532D01*
X66294086Y-53061515D01*
X66133519Y-53394099D01*
X65906853Y-53863194D01*
X65693337Y-54316947D01*
X65510273Y-54717724D01*
X65374961Y-55027888D01*
X65322839Y-55157638D01*
X65170146Y-55526920D01*
X65035571Y-55746725D01*
X64899145Y-55832571D01*
X64740898Y-55799975D01*
X64606015Y-55714675D01*
X64518736Y-55641115D01*
X64486588Y-55558696D01*
X64510853Y-55421410D01*
X64592809Y-55183251D01*
X64623095Y-55100842D01*
X64744626Y-54777954D01*
X64864549Y-54470476D01*
X64929018Y-54312000D01*
X64977280Y-54187226D01*
X64995902Y-54076407D01*
X64974641Y-53948707D01*
X64903253Y-53773289D01*
X64771498Y-53519318D01*
X64569132Y-53155957D01*
X64510378Y-53051636D01*
X64259676Y-52590455D01*
X64098402Y-52247438D01*
X64021042Y-52000535D01*
X64022079Y-51827698D01*
X64095998Y-51706879D01*
X64161544Y-51657206D01*
X64296457Y-51626172D01*
X64449824Y-51704328D01*
G37*
X64449824Y-51704328D02*
X64634184Y-51904391D01*
X64862078Y-52239076D01*
X65057266Y-52565536D01*
X65442116Y-53232073D01*
X65816536Y-52463247D01*
X66039407Y-52039920D01*
X66226755Y-51767459D01*
X66390986Y-51634321D01*
X66544509Y-51628965D01*
X66647063Y-51690705D01*
X66753248Y-51854086D01*
X66770000Y-51943966D01*
X66734028Y-52067382D01*
X66634416Y-52313695D01*
X66483617Y-52654532D01*
X66294086Y-53061515D01*
X66133519Y-53394099D01*
X65906853Y-53863194D01*
X65693337Y-54316947D01*
X65510273Y-54717724D01*
X65374961Y-55027888D01*
X65322839Y-55157638D01*
X65170146Y-55526920D01*
X65035571Y-55746725D01*
X64899145Y-55832571D01*
X64740898Y-55799975D01*
X64606015Y-55714675D01*
X64518736Y-55641115D01*
X64486588Y-55558696D01*
X64510853Y-55421410D01*
X64592809Y-55183251D01*
X64623095Y-55100842D01*
X64744626Y-54777954D01*
X64864549Y-54470476D01*
X64929018Y-54312000D01*
X64977280Y-54187226D01*
X64995902Y-54076407D01*
X64974641Y-53948707D01*
X64903253Y-53773289D01*
X64771498Y-53519318D01*
X64569132Y-53155957D01*
X64510378Y-53051636D01*
X64259676Y-52590455D01*
X64098402Y-52247438D01*
X64021042Y-52000535D01*
X64022079Y-51827698D01*
X64095998Y-51706879D01*
X64161544Y-51657206D01*
X64296457Y-51626172D01*
X64449824Y-51704328D01*
G36*
X64822667Y-45760667D02*
G01*
X64892273Y-45810437D01*
X64939740Y-45891479D01*
X64969253Y-46033156D01*
X64984996Y-46264832D01*
X64991153Y-46615870D01*
X64992000Y-46948979D01*
X64996103Y-47357830D01*
X65007330Y-47697576D01*
X65024053Y-47936739D01*
X65044646Y-48043841D01*
X65048721Y-48046667D01*
X65130485Y-47991547D01*
X65302933Y-47843643D01*
X65536248Y-47629136D01*
X65675489Y-47496333D01*
X65985304Y-47208301D01*
X66208065Y-47034409D01*
X66369107Y-46962141D01*
X66493768Y-46978979D01*
X66583733Y-47047600D01*
X66683315Y-47247426D01*
X66622324Y-47489349D01*
X66399928Y-47775811D01*
X66304333Y-47868294D01*
X66103731Y-48061202D01*
X65965704Y-48209233D01*
X65923333Y-48272524D01*
X65972741Y-48362580D01*
X66099531Y-48536554D01*
X66208178Y-48673175D01*
X66412947Y-48938620D01*
X66605123Y-49214011D01*
X66757846Y-49457897D01*
X66844256Y-49628823D01*
X66854350Y-49670452D01*
X66790291Y-49790281D01*
X66646417Y-49918171D01*
X66496752Y-49991423D01*
X66472369Y-49994000D01*
X66373624Y-49930100D01*
X66205143Y-49758689D01*
X65995398Y-49510199D01*
X65878252Y-49359000D01*
X65664712Y-49083355D01*
X65486380Y-48868102D01*
X65368730Y-48743257D01*
X65339351Y-48724000D01*
X65163252Y-48803276D01*
X65023877Y-49021494D01*
X64939796Y-49349240D01*
X64938509Y-49359000D01*
X64859226Y-49733737D01*
X64739580Y-49946167D01*
X64580697Y-49995342D01*
X64383707Y-49880317D01*
X64352700Y-49850605D01*
X64271873Y-49732224D01*
X64241328Y-49560118D01*
X64254001Y-49283874D01*
X64261986Y-49203185D01*
X64280042Y-48943746D01*
X64295432Y-48557295D01*
X64306997Y-48086148D01*
X64313584Y-47572619D01*
X64314667Y-47275226D01*
X64315840Y-46751677D01*
X64321248Y-46372109D01*
X64333726Y-46111172D01*
X64356107Y-45943519D01*
X64391225Y-45843802D01*
X64441915Y-45786673D01*
X64484000Y-45760667D01*
X64700506Y-45716360D01*
X64822667Y-45760667D01*
G37*
X64822667Y-45760667D02*
X64892273Y-45810437D01*
X64939740Y-45891479D01*
X64969253Y-46033156D01*
X64984996Y-46264832D01*
X64991153Y-46615870D01*
X64992000Y-46948979D01*
X64996103Y-47357830D01*
X65007330Y-47697576D01*
X65024053Y-47936739D01*
X65044646Y-48043841D01*
X65048721Y-48046667D01*
X65130485Y-47991547D01*
X65302933Y-47843643D01*
X65536248Y-47629136D01*
X65675489Y-47496333D01*
X65985304Y-47208301D01*
X66208065Y-47034409D01*
X66369107Y-46962141D01*
X66493768Y-46978979D01*
X66583733Y-47047600D01*
X66683315Y-47247426D01*
X66622324Y-47489349D01*
X66399928Y-47775811D01*
X66304333Y-47868294D01*
X66103731Y-48061202D01*
X65965704Y-48209233D01*
X65923333Y-48272524D01*
X65972741Y-48362580D01*
X66099531Y-48536554D01*
X66208178Y-48673175D01*
X66412947Y-48938620D01*
X66605123Y-49214011D01*
X66757846Y-49457897D01*
X66844256Y-49628823D01*
X66854350Y-49670452D01*
X66790291Y-49790281D01*
X66646417Y-49918171D01*
X66496752Y-49991423D01*
X66472369Y-49994000D01*
X66373624Y-49930100D01*
X66205143Y-49758689D01*
X65995398Y-49510199D01*
X65878252Y-49359000D01*
X65664712Y-49083355D01*
X65486380Y-48868102D01*
X65368730Y-48743257D01*
X65339351Y-48724000D01*
X65163252Y-48803276D01*
X65023877Y-49021494D01*
X64939796Y-49349240D01*
X64938509Y-49359000D01*
X64859226Y-49733737D01*
X64739580Y-49946167D01*
X64580697Y-49995342D01*
X64383707Y-49880317D01*
X64352700Y-49850605D01*
X64271873Y-49732224D01*
X64241328Y-49560118D01*
X64254001Y-49283874D01*
X64261986Y-49203185D01*
X64280042Y-48943746D01*
X64295432Y-48557295D01*
X64306997Y-48086148D01*
X64313584Y-47572619D01*
X64314667Y-47275226D01*
X64315840Y-46751677D01*
X64321248Y-46372109D01*
X64333726Y-46111172D01*
X64356107Y-45943519D01*
X64391225Y-45843802D01*
X64441915Y-45786673D01*
X64484000Y-45760667D01*
X64700506Y-45716360D01*
X64822667Y-45760667D01*
G36*
X65940527Y-40589532D02*
G01*
X65978149Y-40599495D01*
X66232416Y-40684051D01*
X66398677Y-40790268D01*
X66493545Y-40952147D01*
X66533635Y-41203693D01*
X66535560Y-41578907D01*
X66530829Y-41730654D01*
X66527498Y-42197499D01*
X66558500Y-42538342D01*
X66627799Y-42793766D01*
X66636821Y-42815780D01*
X66736939Y-43076154D01*
X66757712Y-43232005D01*
X66696275Y-43329888D01*
X66601529Y-43389538D01*
X66422736Y-43431542D01*
X66233630Y-43349030D01*
X66083039Y-43270533D01*
X65938583Y-43270713D01*
X65727487Y-43346513D01*
X65427464Y-43445836D01*
X65163590Y-43454097D01*
X64877069Y-43387612D01*
X64513500Y-43195475D01*
X64247322Y-42878648D01*
X64093492Y-42460353D01*
X64060667Y-42120000D01*
X64065026Y-42092694D01*
X64738000Y-42092694D01*
X64802139Y-42414634D01*
X64983494Y-42627161D01*
X65265469Y-42711924D01*
X65298700Y-42712667D01*
X65543510Y-42691496D01*
X65731337Y-42640181D01*
X65738399Y-42636589D01*
X65811847Y-42569122D01*
X65850927Y-42440406D01*
X65861657Y-42212708D01*
X65853144Y-41916923D01*
X65825288Y-41273333D01*
X65569511Y-41273333D01*
X65309702Y-41345384D01*
X65052164Y-41528939D01*
X64846516Y-41775104D01*
X64742377Y-42034982D01*
X64738000Y-42092694D01*
X64065026Y-42092694D01*
X64135990Y-41648190D01*
X64343477Y-41233758D01*
X64655401Y-40898689D01*
X65044035Y-40664972D01*
X65481652Y-40554590D01*
X65940527Y-40589532D01*
G37*
X65940527Y-40589532D02*
X65978149Y-40599495D01*
X66232416Y-40684051D01*
X66398677Y-40790268D01*
X66493545Y-40952147D01*
X66533635Y-41203693D01*
X66535560Y-41578907D01*
X66530829Y-41730654D01*
X66527498Y-42197499D01*
X66558500Y-42538342D01*
X66627799Y-42793766D01*
X66636821Y-42815780D01*
X66736939Y-43076154D01*
X66757712Y-43232005D01*
X66696275Y-43329888D01*
X66601529Y-43389538D01*
X66422736Y-43431542D01*
X66233630Y-43349030D01*
X66083039Y-43270533D01*
X65938583Y-43270713D01*
X65727487Y-43346513D01*
X65427464Y-43445836D01*
X65163590Y-43454097D01*
X64877069Y-43387612D01*
X64513500Y-43195475D01*
X64247322Y-42878648D01*
X64093492Y-42460353D01*
X64060667Y-42120000D01*
X64065026Y-42092694D01*
X64738000Y-42092694D01*
X64802139Y-42414634D01*
X64983494Y-42627161D01*
X65265469Y-42711924D01*
X65298700Y-42712667D01*
X65543510Y-42691496D01*
X65731337Y-42640181D01*
X65738399Y-42636589D01*
X65811847Y-42569122D01*
X65850927Y-42440406D01*
X65861657Y-42212708D01*
X65853144Y-41916923D01*
X65825288Y-41273333D01*
X65569511Y-41273333D01*
X65309702Y-41345384D01*
X65052164Y-41528939D01*
X64846516Y-41775104D01*
X64742377Y-42034982D01*
X64738000Y-42092694D01*
X64065026Y-42092694D01*
X64135990Y-41648190D01*
X64343477Y-41233758D01*
X64655401Y-40898689D01*
X65044035Y-40664972D01*
X65481652Y-40554590D01*
X65940527Y-40589532D01*
G36*
X65564959Y-34789467D02*
G01*
X66025730Y-34901138D01*
X66342994Y-35098906D01*
X66506216Y-35354994D01*
X66558207Y-35590322D01*
X66522229Y-35791911D01*
X66381256Y-35980284D01*
X66118261Y-36175961D01*
X65716219Y-36399464D01*
X65584667Y-36465730D01*
X64780333Y-36865127D01*
X65299160Y-36867897D01*
X65637858Y-36848118D01*
X65957504Y-36794285D01*
X66119927Y-36744508D01*
X66414146Y-36663539D01*
X66604727Y-36705991D01*
X66683611Y-36869520D01*
X66685333Y-36908936D01*
X66607210Y-37147268D01*
X66395720Y-37348628D01*
X66085181Y-37499604D01*
X65709913Y-37586789D01*
X65304233Y-37596771D01*
X65034333Y-37554035D01*
X64591592Y-37381167D01*
X64284006Y-37106776D01*
X64108537Y-36726987D01*
X64060983Y-36312483D01*
X64092388Y-36087379D01*
X64737607Y-36087379D01*
X64751177Y-36183842D01*
X64782748Y-36193333D01*
X64875517Y-36157943D01*
X65075227Y-36065256D01*
X65333081Y-35938114D01*
X65588990Y-35797375D01*
X65770839Y-35675308D01*
X65838667Y-35599448D01*
X65763493Y-35547445D01*
X65575451Y-35518281D01*
X65495957Y-35516000D01*
X65210361Y-35553266D01*
X64996654Y-35688213D01*
X64945624Y-35740030D01*
X64807966Y-35924012D01*
X64737607Y-36087379D01*
X64092388Y-36087379D01*
X64129090Y-35824318D01*
X64319174Y-35404148D01*
X64608746Y-35074748D01*
X64975316Y-34858890D01*
X65396397Y-34779350D01*
X65564959Y-34789467D01*
G37*
X65564959Y-34789467D02*
X66025730Y-34901138D01*
X66342994Y-35098906D01*
X66506216Y-35354994D01*
X66558207Y-35590322D01*
X66522229Y-35791911D01*
X66381256Y-35980284D01*
X66118261Y-36175961D01*
X65716219Y-36399464D01*
X65584667Y-36465730D01*
X64780333Y-36865127D01*
X65299160Y-36867897D01*
X65637858Y-36848118D01*
X65957504Y-36794285D01*
X66119927Y-36744508D01*
X66414146Y-36663539D01*
X66604727Y-36705991D01*
X66683611Y-36869520D01*
X66685333Y-36908936D01*
X66607210Y-37147268D01*
X66395720Y-37348628D01*
X66085181Y-37499604D01*
X65709913Y-37586789D01*
X65304233Y-37596771D01*
X65034333Y-37554035D01*
X64591592Y-37381167D01*
X64284006Y-37106776D01*
X64108537Y-36726987D01*
X64060983Y-36312483D01*
X64092388Y-36087379D01*
X64737607Y-36087379D01*
X64751177Y-36183842D01*
X64782748Y-36193333D01*
X64875517Y-36157943D01*
X65075227Y-36065256D01*
X65333081Y-35938114D01*
X65588990Y-35797375D01*
X65770839Y-35675308D01*
X65838667Y-35599448D01*
X65763493Y-35547445D01*
X65575451Y-35518281D01*
X65495957Y-35516000D01*
X65210361Y-35553266D01*
X64996654Y-35688213D01*
X64945624Y-35740030D01*
X64807966Y-35924012D01*
X64737607Y-36087379D01*
X64092388Y-36087379D01*
X64129090Y-35824318D01*
X64319174Y-35404148D01*
X64608746Y-35074748D01*
X64975316Y-34858890D01*
X65396397Y-34779350D01*
X65564959Y-34789467D01*
G36*
X64782996Y-28220026D02*
G01*
X64869965Y-28294060D01*
X64922377Y-28362089D01*
X64958171Y-28461060D01*
X64978730Y-28616854D01*
X64985440Y-28855351D01*
X64979686Y-29202429D01*
X64962852Y-29683967D01*
X64954906Y-29881560D01*
X64932653Y-30372020D01*
X64908545Y-30814280D01*
X64884667Y-31175876D01*
X64863102Y-31424342D01*
X64850048Y-31515500D01*
X64839150Y-31644055D01*
X64919313Y-31696710D01*
X65094381Y-31706000D01*
X65321933Y-31684223D01*
X65643724Y-31627026D01*
X65991495Y-31546612D01*
X66003425Y-31543494D01*
X66383495Y-31453816D01*
X66635067Y-31426272D01*
X66788771Y-31465094D01*
X66875237Y-31574515D01*
X66905701Y-31668193D01*
X66924220Y-31845858D01*
X66866104Y-31985478D01*
X66711662Y-32097890D01*
X66441202Y-32193933D01*
X66035032Y-32284445D01*
X65669333Y-32348684D01*
X65240055Y-32415644D01*
X64938583Y-32450043D01*
X64726661Y-32452440D01*
X64566031Y-32423395D01*
X64425439Y-32366869D01*
X64264340Y-32256135D01*
X64199316Y-32171494D01*
X64185941Y-32042489D01*
X64184131Y-31778217D01*
X64192220Y-31408674D01*
X64208539Y-30963856D01*
X64231422Y-30473761D01*
X64259202Y-29968386D01*
X64290212Y-29477726D01*
X64322784Y-29031779D01*
X64355252Y-28660542D01*
X64385948Y-28394011D01*
X64413206Y-28262183D01*
X64416934Y-28255833D01*
X64585874Y-28156370D01*
X64782996Y-28220026D01*
G37*
X64782996Y-28220026D02*
X64869965Y-28294060D01*
X64922377Y-28362089D01*
X64958171Y-28461060D01*
X64978730Y-28616854D01*
X64985440Y-28855351D01*
X64979686Y-29202429D01*
X64962852Y-29683967D01*
X64954906Y-29881560D01*
X64932653Y-30372020D01*
X64908545Y-30814280D01*
X64884667Y-31175876D01*
X64863102Y-31424342D01*
X64850048Y-31515500D01*
X64839150Y-31644055D01*
X64919313Y-31696710D01*
X65094381Y-31706000D01*
X65321933Y-31684223D01*
X65643724Y-31627026D01*
X65991495Y-31546612D01*
X66003425Y-31543494D01*
X66383495Y-31453816D01*
X66635067Y-31426272D01*
X66788771Y-31465094D01*
X66875237Y-31574515D01*
X66905701Y-31668193D01*
X66924220Y-31845858D01*
X66866104Y-31985478D01*
X66711662Y-32097890D01*
X66441202Y-32193933D01*
X66035032Y-32284445D01*
X65669333Y-32348684D01*
X65240055Y-32415644D01*
X64938583Y-32450043D01*
X64726661Y-32452440D01*
X64566031Y-32423395D01*
X64425439Y-32366869D01*
X64264340Y-32256135D01*
X64199316Y-32171494D01*
X64185941Y-32042489D01*
X64184131Y-31778217D01*
X64192220Y-31408674D01*
X64208539Y-30963856D01*
X64231422Y-30473761D01*
X64259202Y-29968386D01*
X64290212Y-29477726D01*
X64322784Y-29031779D01*
X64355252Y-28660542D01*
X64385948Y-28394011D01*
X64413206Y-28262183D01*
X64416934Y-28255833D01*
X64585874Y-28156370D01*
X64782996Y-28220026D01*
D10*
%TO.C,BT1*%
X29950000Y-28100000D02*
X29950000Y-88400000D01*
X29950000Y-28100000D02*
X59500000Y-28100000D01*
X59500000Y-88400000D02*
X29950000Y-88400000D01*
X59500000Y-88400000D02*
X59500000Y-28100000D01*
X41605000Y-67465000D02*
X36525000Y-67465000D01*
X36525000Y-67465000D02*
X36525000Y-49685000D01*
X36525000Y-49685000D02*
X37795000Y-49685000D01*
X37795000Y-49685000D02*
X37795000Y-48415000D01*
X37795000Y-48415000D02*
X40335000Y-48415000D01*
X40335000Y-48415000D02*
X40335000Y-49685000D01*
X40335000Y-49685000D02*
X41605000Y-49685000D01*
X41605000Y-49685000D02*
X41605000Y-67465000D01*
X50070000Y-48415000D02*
X53880000Y-48415000D01*
X53880000Y-48415000D02*
X53880000Y-66195000D01*
X53880000Y-66195000D02*
X52610000Y-66195000D01*
X52610000Y-66195000D02*
X52610000Y-67465000D01*
X52610000Y-67465000D02*
X50070000Y-67465000D01*
X50070000Y-67465000D02*
X50070000Y-66195000D01*
X50070000Y-66195000D02*
X48800000Y-66195000D01*
X48800000Y-66195000D02*
X48800000Y-48415000D01*
X48800000Y-48415000D02*
X50070000Y-48415000D01*
%TO.C,TP2*%
X61300000Y-89800000D02*
G75*
G03*
X61300000Y-89800000I-700000J0D01*
G01*
%TO.C,U1*%
X70750000Y-77850000D02*
X60250000Y-77850000D01*
X70750000Y-83100000D02*
X70750000Y-77850000D01*
X70750000Y-83100000D02*
X70750000Y-88350000D01*
X60250000Y-77850000D02*
X60250000Y-83100000D01*
X60250000Y-88350000D02*
X60250000Y-83100000D01*
X60250000Y-88350000D02*
X65500000Y-88350000D01*
X65500000Y-88350000D02*
X70750000Y-88350000D01*
D14*
%TO.C,U2*%
X48716000Y-103041000D02*
X48716000Y-102279000D01*
X48716000Y-102279000D02*
X32714000Y-102279000D01*
X32714000Y-102279000D02*
X32714000Y-103041000D01*
D10*
%TO.C,C2*%
X50965000Y-99261252D02*
X50965000Y-98738748D01*
X52435000Y-99261252D02*
X52435000Y-98738748D01*
%TO.C,C3*%
X51065000Y-112923752D02*
X51065000Y-112401248D01*
X52535000Y-112923752D02*
X52535000Y-112401248D01*
%TO.C,C4*%
X50965000Y-104738748D02*
X50965000Y-105261252D01*
X52435000Y-104738748D02*
X52435000Y-105261252D01*
%TO.C,J1*%
X23670000Y-62220000D02*
X25000000Y-62220000D01*
X23670000Y-63550000D02*
X23670000Y-62220000D01*
X23670000Y-64820000D02*
X26330000Y-64820000D01*
X26330000Y-64820000D02*
X26330000Y-72500000D01*
X23670000Y-64820000D02*
X23670000Y-72500000D01*
X23670000Y-72500000D02*
X26330000Y-72500000D01*
%TO.C,JP1*%
X26330000Y-104170000D02*
X23670000Y-104170000D01*
X26330000Y-106770000D02*
X26330000Y-104170000D01*
X23670000Y-106770000D02*
X23670000Y-104170000D01*
X26330000Y-106770000D02*
X23670000Y-106770000D01*
X26330000Y-108040000D02*
X26330000Y-109370000D01*
X26330000Y-109370000D02*
X25000000Y-109370000D01*
%TO.C,JP2*%
X56670000Y-103570000D02*
X58000000Y-103570000D01*
X56670000Y-104900000D02*
X56670000Y-103570000D01*
X56670000Y-106170000D02*
X59330000Y-106170000D01*
X59330000Y-106170000D02*
X59330000Y-108770000D01*
X56670000Y-106170000D02*
X56670000Y-108770000D01*
X56670000Y-108770000D02*
X59330000Y-108770000D01*
%TO.C,R1*%
X68290000Y-106088748D02*
X68290000Y-106611252D01*
X69710000Y-106088748D02*
X69710000Y-106611252D01*
%TO.C,R2*%
X59040000Y-112513748D02*
X59040000Y-113036252D01*
X60460000Y-112513748D02*
X60460000Y-113036252D01*
%TO.C,R3*%
X55540000Y-113036252D02*
X55540000Y-112513748D01*
X56960000Y-113036252D02*
X56960000Y-112513748D01*
%TO.C,R4*%
X52613748Y-117190000D02*
X53136252Y-117190000D01*
X52613748Y-118610000D02*
X53136252Y-118610000D01*
%TO.C,R5*%
X40490000Y-99261252D02*
X40490000Y-98738748D01*
X41910000Y-99261252D02*
X41910000Y-98738748D01*
%TO.C,R6*%
X48410000Y-99261252D02*
X48410000Y-98738748D01*
X46990000Y-99261252D02*
X46990000Y-98738748D01*
%TO.C,R7*%
X36810000Y-99236252D02*
X36810000Y-98713748D01*
X35390000Y-99236252D02*
X35390000Y-98713748D01*
%TO.C,TP1*%
X66100000Y-75200000D02*
G75*
G03*
X66100000Y-75200000I-700000J0D01*
G01*
%TO.C,TP3*%
X63500000Y-111800000D02*
G75*
G03*
X63500000Y-111800000I-700000J0D01*
G01*
%TO.C,TP4*%
X57000000Y-115900000D02*
G75*
G03*
X57000000Y-115900000I-700000J0D01*
G01*
%TO.C,TP5*%
X57100000Y-97900000D02*
G75*
G03*
X57100000Y-97900000I-700000J0D01*
G01*
%TO.C,SW1*%
X65230000Y-116070000D02*
X65230000Y-118730000D01*
X67830000Y-116070000D02*
X65230000Y-116070000D01*
X67830000Y-118730000D02*
X65230000Y-118730000D01*
X67830000Y-116070000D02*
X67830000Y-118730000D01*
X69100000Y-116070000D02*
X70430000Y-116070000D01*
X70430000Y-116070000D02*
X70430000Y-117400000D01*
%TO.C,BZ1*%
X33000000Y-95950000D02*
G75*
G03*
X33000000Y-95950000I-6100000J0D01*
G01*
%TO.C,J2*%
X23670000Y-47150000D02*
X26330000Y-47150000D01*
X23670000Y-46900000D02*
X23670000Y-47150000D01*
X26330000Y-46900000D02*
X26330000Y-47150000D01*
X26330000Y-44630000D02*
X26330000Y-46900000D01*
X23670000Y-44630000D02*
X23670000Y-46900000D01*
X26330000Y-34410000D02*
X23670000Y-34410000D01*
X26330000Y-44630000D02*
X26330000Y-34410000D01*
X23670000Y-44630000D02*
X23670000Y-34410000D01*
D15*
%TO.C,H1*%
X28450000Y-25000000D02*
G75*
G03*
X28450000Y-25000000I-3450000J0D01*
G01*
%TO.C,H2*%
X28450000Y-115000000D02*
G75*
G03*
X28450000Y-115000000I-3450000J0D01*
G01*
D10*
%TO.C,C1*%
X70331000Y-96051000D02*
X70331000Y-97249000D01*
X70291000Y-95788000D02*
X70291000Y-97512000D01*
X70251000Y-95588000D02*
X70251000Y-97712000D01*
X70211000Y-95420000D02*
X70211000Y-97880000D01*
X70171000Y-95272000D02*
X70171000Y-98028000D01*
X70131000Y-95140000D02*
X70131000Y-98160000D01*
X70091000Y-95020000D02*
X70091000Y-98280000D01*
X70051000Y-94908000D02*
X70051000Y-98392000D01*
X70011000Y-94804000D02*
X70011000Y-98496000D01*
X69971000Y-94706000D02*
X69971000Y-98594000D01*
X69931000Y-94613000D02*
X69931000Y-98687000D01*
X69891000Y-94525000D02*
X69891000Y-98775000D01*
X69851000Y-94441000D02*
X69851000Y-98859000D01*
X69811000Y-94361000D02*
X69811000Y-98939000D01*
X69771000Y-94285000D02*
X69771000Y-99015000D01*
X69731000Y-94211000D02*
X69731000Y-99089000D01*
X69691000Y-94140000D02*
X69691000Y-99160000D01*
X69651000Y-94071000D02*
X69651000Y-99229000D01*
X69611000Y-94005000D02*
X69611000Y-99295000D01*
X69571000Y-93941000D02*
X69571000Y-99359000D01*
X69531000Y-93880000D02*
X69531000Y-99420000D01*
X69491000Y-93820000D02*
X69491000Y-99480000D01*
X69451000Y-93761000D02*
X69451000Y-99539000D01*
X69411000Y-93705000D02*
X69411000Y-99595000D01*
X69371000Y-93650000D02*
X69371000Y-99650000D01*
X69331000Y-93596000D02*
X69331000Y-99704000D01*
X69291000Y-93544000D02*
X69291000Y-99756000D01*
X69251000Y-93494000D02*
X69251000Y-99806000D01*
X69211000Y-93444000D02*
X69211000Y-99856000D01*
X69171000Y-93396000D02*
X69171000Y-99904000D01*
X69131000Y-93349000D02*
X69131000Y-99951000D01*
X69091000Y-93303000D02*
X69091000Y-99997000D01*
X69051000Y-93258000D02*
X69051000Y-100042000D01*
X69011000Y-93214000D02*
X69011000Y-100086000D01*
X68971000Y-97891000D02*
X68971000Y-100128000D01*
X68971000Y-93172000D02*
X68971000Y-95409000D01*
X68931000Y-97891000D02*
X68931000Y-100170000D01*
X68931000Y-93130000D02*
X68931000Y-95409000D01*
X68891000Y-97891000D02*
X68891000Y-100211000D01*
X68891000Y-93089000D02*
X68891000Y-95409000D01*
X68851000Y-97891000D02*
X68851000Y-100251000D01*
X68851000Y-93049000D02*
X68851000Y-95409000D01*
X68811000Y-97891000D02*
X68811000Y-100290000D01*
X68811000Y-93010000D02*
X68811000Y-95409000D01*
X68771000Y-97891000D02*
X68771000Y-100329000D01*
X68771000Y-92971000D02*
X68771000Y-95409000D01*
X68731000Y-97891000D02*
X68731000Y-100366000D01*
X68731000Y-92934000D02*
X68731000Y-95409000D01*
X68691000Y-97891000D02*
X68691000Y-100403000D01*
X68691000Y-92897000D02*
X68691000Y-95409000D01*
X68651000Y-97891000D02*
X68651000Y-100439000D01*
X68651000Y-92861000D02*
X68651000Y-95409000D01*
X68611000Y-97891000D02*
X68611000Y-100474000D01*
X68611000Y-92826000D02*
X68611000Y-95409000D01*
X68571000Y-97891000D02*
X68571000Y-100508000D01*
X68571000Y-92792000D02*
X68571000Y-95409000D01*
X68531000Y-97891000D02*
X68531000Y-100542000D01*
X68531000Y-92758000D02*
X68531000Y-95409000D01*
X68491000Y-97891000D02*
X68491000Y-100575000D01*
X68491000Y-92725000D02*
X68491000Y-95409000D01*
X68451000Y-97891000D02*
X68451000Y-100607000D01*
X68451000Y-92693000D02*
X68451000Y-95409000D01*
X68411000Y-97891000D02*
X68411000Y-100639000D01*
X68411000Y-92661000D02*
X68411000Y-95409000D01*
X68371000Y-97891000D02*
X68371000Y-100670000D01*
X68371000Y-92630000D02*
X68371000Y-95409000D01*
X68331000Y-97891000D02*
X68331000Y-100700000D01*
X68331000Y-92600000D02*
X68331000Y-95409000D01*
X68291000Y-97891000D02*
X68291000Y-100730000D01*
X68291000Y-92570000D02*
X68291000Y-95409000D01*
X68251000Y-97891000D02*
X68251000Y-100760000D01*
X68251000Y-92540000D02*
X68251000Y-95409000D01*
X68211000Y-97891000D02*
X68211000Y-100788000D01*
X68211000Y-92512000D02*
X68211000Y-95409000D01*
X68171000Y-97891000D02*
X68171000Y-100816000D01*
X68171000Y-92484000D02*
X68171000Y-95409000D01*
X68131000Y-97891000D02*
X68131000Y-100844000D01*
X68131000Y-92456000D02*
X68131000Y-95409000D01*
X68091000Y-97891000D02*
X68091000Y-100871000D01*
X68091000Y-92429000D02*
X68091000Y-95409000D01*
X68051000Y-97891000D02*
X68051000Y-100897000D01*
X68051000Y-92403000D02*
X68051000Y-95409000D01*
X68011000Y-97891000D02*
X68011000Y-100923000D01*
X68011000Y-92377000D02*
X68011000Y-95409000D01*
X67971000Y-97891000D02*
X67971000Y-100948000D01*
X67971000Y-92352000D02*
X67971000Y-95409000D01*
X67931000Y-97891000D02*
X67931000Y-100973000D01*
X67931000Y-92327000D02*
X67931000Y-95409000D01*
X67891000Y-97891000D02*
X67891000Y-100997000D01*
X67891000Y-92303000D02*
X67891000Y-95409000D01*
X67851000Y-97891000D02*
X67851000Y-101021000D01*
X67851000Y-92279000D02*
X67851000Y-95409000D01*
X67811000Y-97891000D02*
X67811000Y-101045000D01*
X67811000Y-92255000D02*
X67811000Y-95409000D01*
X67771000Y-97891000D02*
X67771000Y-101067000D01*
X67771000Y-92233000D02*
X67771000Y-95409000D01*
X67731000Y-97891000D02*
X67731000Y-101090000D01*
X67731000Y-92210000D02*
X67731000Y-95409000D01*
X67691000Y-97891000D02*
X67691000Y-101112000D01*
X67691000Y-92188000D02*
X67691000Y-95409000D01*
X67651000Y-97891000D02*
X67651000Y-101133000D01*
X67651000Y-92167000D02*
X67651000Y-95409000D01*
X67611000Y-97891000D02*
X67611000Y-101154000D01*
X67611000Y-92146000D02*
X67611000Y-95409000D01*
X67571000Y-97891000D02*
X67571000Y-101175000D01*
X67571000Y-92125000D02*
X67571000Y-95409000D01*
X67531000Y-97891000D02*
X67531000Y-101195000D01*
X67531000Y-92105000D02*
X67531000Y-95409000D01*
X67491000Y-97891000D02*
X67491000Y-101214000D01*
X67491000Y-92086000D02*
X67491000Y-95409000D01*
X67451000Y-97891000D02*
X67451000Y-101234000D01*
X67451000Y-92066000D02*
X67451000Y-95409000D01*
X67411000Y-97891000D02*
X67411000Y-101253000D01*
X67411000Y-92047000D02*
X67411000Y-95409000D01*
X67371000Y-97891000D02*
X67371000Y-101271000D01*
X67371000Y-92029000D02*
X67371000Y-95409000D01*
X67331000Y-97891000D02*
X67331000Y-101289000D01*
X67331000Y-92011000D02*
X67331000Y-95409000D01*
X67291000Y-97891000D02*
X67291000Y-101307000D01*
X67291000Y-91993000D02*
X67291000Y-95409000D01*
X67251000Y-97891000D02*
X67251000Y-101324000D01*
X67251000Y-91976000D02*
X67251000Y-95409000D01*
X67211000Y-97891000D02*
X67211000Y-101340000D01*
X67211000Y-91960000D02*
X67211000Y-95409000D01*
X67171000Y-97891000D02*
X67171000Y-101357000D01*
X67171000Y-91943000D02*
X67171000Y-95409000D01*
X67131000Y-97891000D02*
X67131000Y-101373000D01*
X67131000Y-91927000D02*
X67131000Y-95409000D01*
X67091000Y-97891000D02*
X67091000Y-101388000D01*
X67091000Y-91912000D02*
X67091000Y-95409000D01*
X67051000Y-97891000D02*
X67051000Y-101404000D01*
X67051000Y-91896000D02*
X67051000Y-95409000D01*
X67011000Y-97891000D02*
X67011000Y-101418000D01*
X67011000Y-91882000D02*
X67011000Y-95409000D01*
X66971000Y-97891000D02*
X66971000Y-101433000D01*
X66971000Y-91867000D02*
X66971000Y-95409000D01*
X66931000Y-97891000D02*
X66931000Y-101447000D01*
X66931000Y-91853000D02*
X66931000Y-95409000D01*
X66891000Y-97891000D02*
X66891000Y-101461000D01*
X66891000Y-91839000D02*
X66891000Y-95409000D01*
X66851000Y-97891000D02*
X66851000Y-101474000D01*
X66851000Y-91826000D02*
X66851000Y-95409000D01*
X66811000Y-97891000D02*
X66811000Y-101487000D01*
X66811000Y-91813000D02*
X66811000Y-95409000D01*
X66771000Y-97891000D02*
X66771000Y-101500000D01*
X66771000Y-91800000D02*
X66771000Y-95409000D01*
X66731000Y-97891000D02*
X66731000Y-101512000D01*
X66731000Y-91788000D02*
X66731000Y-95409000D01*
X66691000Y-97891000D02*
X66691000Y-101524000D01*
X66691000Y-91776000D02*
X66691000Y-95409000D01*
X66651000Y-97891000D02*
X66651000Y-101535000D01*
X66651000Y-91765000D02*
X66651000Y-95409000D01*
X66611000Y-97891000D02*
X66611000Y-101547000D01*
X66611000Y-91753000D02*
X66611000Y-95409000D01*
X66571000Y-97891000D02*
X66571000Y-101557000D01*
X66571000Y-91743000D02*
X66571000Y-95409000D01*
X66531000Y-97891000D02*
X66531000Y-101568000D01*
X66531000Y-91732000D02*
X66531000Y-95409000D01*
X66491000Y-91722000D02*
X66491000Y-101578000D01*
X66451000Y-91712000D02*
X66451000Y-101588000D01*
X66411000Y-91703000D02*
X66411000Y-101597000D01*
X66371000Y-91694000D02*
X66371000Y-101606000D01*
X66331000Y-91685000D02*
X66331000Y-101615000D01*
X66291000Y-91676000D02*
X66291000Y-101624000D01*
X66251000Y-91668000D02*
X66251000Y-101632000D01*
X66211000Y-91660000D02*
X66211000Y-101640000D01*
X66171000Y-91653000D02*
X66171000Y-101647000D01*
X66131000Y-91646000D02*
X66131000Y-101654000D01*
X66091000Y-91639000D02*
X66091000Y-101661000D01*
X66051000Y-91632000D02*
X66051000Y-101668000D01*
X66011000Y-91626000D02*
X66011000Y-101674000D01*
X65971000Y-91620000D02*
X65971000Y-101680000D01*
X65930000Y-91615000D02*
X65930000Y-101685000D01*
X65890000Y-91610000D02*
X65890000Y-101690000D01*
X65850000Y-91605000D02*
X65850000Y-101695000D01*
X65810000Y-91600000D02*
X65810000Y-101700000D01*
X65770000Y-91596000D02*
X65770000Y-101704000D01*
X65730000Y-91592000D02*
X65730000Y-101708000D01*
X65690000Y-91588000D02*
X65690000Y-101712000D01*
X65650000Y-91585000D02*
X65650000Y-101715000D01*
X65610000Y-91582000D02*
X65610000Y-101718000D01*
X65570000Y-91580000D02*
X65570000Y-101720000D01*
X65530000Y-91577000D02*
X65530000Y-101723000D01*
X65490000Y-91575000D02*
X65490000Y-101725000D01*
X65450000Y-91573000D02*
X65450000Y-101727000D01*
X65410000Y-91572000D02*
X65410000Y-101728000D01*
X65370000Y-91571000D02*
X65370000Y-101729000D01*
X65330000Y-91570000D02*
X65330000Y-101730000D01*
X65290000Y-91570000D02*
X65290000Y-101730000D01*
X65250000Y-91570000D02*
X65250000Y-101730000D01*
D16*
X61461139Y-93962500D02*
X61461139Y-94962500D01*
X60961139Y-94462500D02*
X61961139Y-94462500D01*
D10*
X70370000Y-96650000D02*
G75*
G03*
X70370000Y-96650000I-5120000J0D01*
G01*
%TO.C,Q1*%
X67000000Y-107950000D02*
X67000000Y-104350000D01*
X66988478Y-107988478D02*
G75*
G02*
X62550000Y-106150000I-1838478J1838478D01*
G01*
X66988478Y-104311522D02*
G75*
G03*
X62550000Y-106150000I-1838478J-1838478D01*
G01*
%TO.C,TP6*%
X70800000Y-89800000D02*
G75*
G03*
X70800000Y-89800000I-700000J0D01*
G01*
%TO.C,BT1*%
D11*
X39172142Y-69306428D02*
X39172142Y-68163571D01*
X39172142Y-47716428D02*
X39172142Y-46573571D01*
X39743571Y-47145000D02*
X38600714Y-47145000D01*
X51447142Y-69306428D02*
X51447142Y-68163571D01*
X52018571Y-68735000D02*
X50875714Y-68735000D01*
X51447142Y-47716428D02*
X51447142Y-46573571D01*
%TO.C,U1*%
X61100000Y-79542857D02*
X61100000Y-78342857D01*
X61385714Y-78342857D01*
X61557142Y-78400000D01*
X61671428Y-78514285D01*
X61728571Y-78628571D01*
X61785714Y-78857142D01*
X61785714Y-79028571D01*
X61728571Y-79257142D01*
X61671428Y-79371428D01*
X61557142Y-79485714D01*
X61385714Y-79542857D01*
X61100000Y-79542857D01*
X62300000Y-79542857D02*
X62300000Y-78342857D01*
X62585714Y-78342857D01*
X62757142Y-78400000D01*
X62871428Y-78514285D01*
X62928571Y-78628571D01*
X62985714Y-78857142D01*
X62985714Y-79028571D01*
X62928571Y-79257142D01*
X62871428Y-79371428D01*
X62757142Y-79485714D01*
X62585714Y-79542857D01*
X62300000Y-79542857D01*
X63728571Y-78342857D02*
X63842857Y-78342857D01*
X63957142Y-78400000D01*
X64014285Y-78457142D01*
X64071428Y-78571428D01*
X64128571Y-78800000D01*
X64128571Y-79085714D01*
X64071428Y-79314285D01*
X64014285Y-79428571D01*
X63957142Y-79485714D01*
X63842857Y-79542857D01*
X63728571Y-79542857D01*
X63614285Y-79485714D01*
X63557142Y-79428571D01*
X63500000Y-79314285D01*
X63442857Y-79085714D01*
X63442857Y-78800000D01*
X63500000Y-78571428D01*
X63557142Y-78457142D01*
X63614285Y-78400000D01*
X63728571Y-78342857D01*
X65157142Y-78742857D02*
X65157142Y-79542857D01*
X64871428Y-78285714D02*
X64585714Y-79142857D01*
X65328571Y-79142857D01*
X66014285Y-78342857D02*
X66128571Y-78342857D01*
X66242857Y-78400000D01*
X66300000Y-78457142D01*
X66357142Y-78571428D01*
X66414285Y-78800000D01*
X66414285Y-79085714D01*
X66357142Y-79314285D01*
X66300000Y-79428571D01*
X66242857Y-79485714D01*
X66128571Y-79542857D01*
X66014285Y-79542857D01*
X65900000Y-79485714D01*
X65842857Y-79428571D01*
X65785714Y-79314285D01*
X65728571Y-79085714D01*
X65728571Y-78800000D01*
X65785714Y-78571428D01*
X65842857Y-78457142D01*
X65900000Y-78400000D01*
X66014285Y-78342857D01*
X67500000Y-78342857D02*
X66928571Y-78342857D01*
X66871428Y-78914285D01*
X66928571Y-78857142D01*
X67042857Y-78800000D01*
X67328571Y-78800000D01*
X67442857Y-78857142D01*
X67500000Y-78914285D01*
X67557142Y-79028571D01*
X67557142Y-79314285D01*
X67500000Y-79428571D01*
X67442857Y-79485714D01*
X67328571Y-79542857D01*
X67042857Y-79542857D01*
X66928571Y-79485714D01*
X66871428Y-79428571D01*
X68071428Y-79542857D02*
X68071428Y-78342857D01*
X68471428Y-79200000D01*
X68871428Y-78342857D01*
X68871428Y-79542857D01*
X69385714Y-79200000D02*
X69957142Y-79200000D01*
X69271428Y-79542857D02*
X69671428Y-78342857D01*
X70071428Y-79542857D01*
%TO.C,U2*%
X37071428Y-112614285D02*
X37471428Y-112614285D01*
X37642857Y-113242857D02*
X37071428Y-113242857D01*
X37071428Y-112042857D01*
X37642857Y-112042857D01*
X38100000Y-113185714D02*
X38271428Y-113242857D01*
X38557142Y-113242857D01*
X38671428Y-113185714D01*
X38728571Y-113128571D01*
X38785714Y-113014285D01*
X38785714Y-112900000D01*
X38728571Y-112785714D01*
X38671428Y-112728571D01*
X38557142Y-112671428D01*
X38328571Y-112614285D01*
X38214285Y-112557142D01*
X38157142Y-112500000D01*
X38100000Y-112385714D01*
X38100000Y-112271428D01*
X38157142Y-112157142D01*
X38214285Y-112100000D01*
X38328571Y-112042857D01*
X38614285Y-112042857D01*
X38785714Y-112100000D01*
X39300000Y-113242857D02*
X39300000Y-112042857D01*
X39757142Y-112042857D01*
X39871428Y-112100000D01*
X39928571Y-112157142D01*
X39985714Y-112271428D01*
X39985714Y-112442857D01*
X39928571Y-112557142D01*
X39871428Y-112614285D01*
X39757142Y-112671428D01*
X39300000Y-112671428D01*
X40500000Y-112785714D02*
X41414285Y-112785714D01*
X42614285Y-113242857D02*
X41928571Y-113242857D01*
X42271428Y-113242857D02*
X42271428Y-112042857D01*
X42157142Y-112214285D01*
X42042857Y-112328571D01*
X41928571Y-112385714D01*
X43071428Y-112157142D02*
X43128571Y-112100000D01*
X43242857Y-112042857D01*
X43528571Y-112042857D01*
X43642857Y-112100000D01*
X43700000Y-112157142D01*
X43757142Y-112271428D01*
X43757142Y-112385714D01*
X43700000Y-112557142D01*
X43014285Y-113242857D01*
X43757142Y-113242857D01*
X44671428Y-112614285D02*
X44271428Y-112614285D01*
X44271428Y-113242857D02*
X44271428Y-112042857D01*
X44842857Y-112042857D01*
%TO.C,C2*%
X53147619Y-97928571D02*
X53147619Y-97357142D01*
X53147619Y-97642857D02*
X54147619Y-97642857D01*
X54004761Y-97547619D01*
X53909523Y-97452380D01*
X53861904Y-97357142D01*
X54147619Y-98547619D02*
X54147619Y-98642857D01*
X54100000Y-98738095D01*
X54052380Y-98785714D01*
X53957142Y-98833333D01*
X53766666Y-98880952D01*
X53528571Y-98880952D01*
X53338095Y-98833333D01*
X53242857Y-98785714D01*
X53195238Y-98738095D01*
X53147619Y-98642857D01*
X53147619Y-98547619D01*
X53195238Y-98452380D01*
X53242857Y-98404761D01*
X53338095Y-98357142D01*
X53528571Y-98309523D01*
X53766666Y-98309523D01*
X53957142Y-98357142D01*
X54052380Y-98404761D01*
X54100000Y-98452380D01*
X54147619Y-98547619D01*
X53814285Y-99738095D02*
X53147619Y-99738095D01*
X53814285Y-99309523D02*
X53290476Y-99309523D01*
X53195238Y-99357142D01*
X53147619Y-99452380D01*
X53147619Y-99595238D01*
X53195238Y-99690476D01*
X53242857Y-99738095D01*
X53671428Y-100547619D02*
X53671428Y-100214285D01*
X53147619Y-100214285D02*
X54147619Y-100214285D01*
X54147619Y-100690476D01*
%TO.C,C3*%
X51128571Y-110252380D02*
X50557142Y-110252380D01*
X50842857Y-110252380D02*
X50842857Y-109252380D01*
X50747619Y-109395238D01*
X50652380Y-109490476D01*
X50557142Y-109538095D01*
X51747619Y-109252380D02*
X51842857Y-109252380D01*
X51938095Y-109300000D01*
X51985714Y-109347619D01*
X52033333Y-109442857D01*
X52080952Y-109633333D01*
X52080952Y-109871428D01*
X52033333Y-110061904D01*
X51985714Y-110157142D01*
X51938095Y-110204761D01*
X51842857Y-110252380D01*
X51747619Y-110252380D01*
X51652380Y-110204761D01*
X51604761Y-110157142D01*
X51557142Y-110061904D01*
X51509523Y-109871428D01*
X51509523Y-109633333D01*
X51557142Y-109442857D01*
X51604761Y-109347619D01*
X51652380Y-109300000D01*
X51747619Y-109252380D01*
X52938095Y-109585714D02*
X52938095Y-110252380D01*
X52509523Y-109585714D02*
X52509523Y-110109523D01*
X52557142Y-110204761D01*
X52652380Y-110252380D01*
X52795238Y-110252380D01*
X52890476Y-110204761D01*
X52938095Y-110157142D01*
X53747619Y-109728571D02*
X53414285Y-109728571D01*
X53414285Y-110252380D02*
X53414285Y-109252380D01*
X53890476Y-109252380D01*
%TO.C,C4*%
X54147619Y-103257142D02*
X54147619Y-103352380D01*
X54100000Y-103447619D01*
X54052380Y-103495238D01*
X53957142Y-103542857D01*
X53766666Y-103590476D01*
X53528571Y-103590476D01*
X53338095Y-103542857D01*
X53242857Y-103495238D01*
X53195238Y-103447619D01*
X53147619Y-103352380D01*
X53147619Y-103257142D01*
X53195238Y-103161904D01*
X53242857Y-103114285D01*
X53338095Y-103066666D01*
X53528571Y-103019047D01*
X53766666Y-103019047D01*
X53957142Y-103066666D01*
X54052380Y-103114285D01*
X54100000Y-103161904D01*
X54147619Y-103257142D01*
X53242857Y-104019047D02*
X53195238Y-104066666D01*
X53147619Y-104019047D01*
X53195238Y-103971428D01*
X53242857Y-104019047D01*
X53147619Y-104019047D01*
X53147619Y-105019047D02*
X53147619Y-104447619D01*
X53147619Y-104733333D02*
X54147619Y-104733333D01*
X54004761Y-104638095D01*
X53909523Y-104542857D01*
X53861904Y-104447619D01*
X53814285Y-105876190D02*
X53147619Y-105876190D01*
X53814285Y-105447619D02*
X53290476Y-105447619D01*
X53195238Y-105495238D01*
X53147619Y-105590476D01*
X53147619Y-105733333D01*
X53195238Y-105828571D01*
X53242857Y-105876190D01*
X53671428Y-106685714D02*
X53671428Y-106352380D01*
X53147619Y-106352380D02*
X54147619Y-106352380D01*
X54147619Y-106828571D01*
%TO.C,J1*%
X29157142Y-64835714D02*
X28185714Y-64835714D01*
X28071428Y-64892857D01*
X28014285Y-64950000D01*
X27957142Y-65064285D01*
X27957142Y-65292857D01*
X28014285Y-65407142D01*
X28071428Y-65464285D01*
X28185714Y-65521428D01*
X29157142Y-65521428D01*
X28300000Y-66035714D02*
X28300000Y-66607142D01*
X27957142Y-65921428D02*
X29157142Y-66321428D01*
X27957142Y-66721428D01*
X27957142Y-67807142D02*
X28528571Y-67407142D01*
X27957142Y-67121428D02*
X29157142Y-67121428D01*
X29157142Y-67578571D01*
X29100000Y-67692857D01*
X29042857Y-67750000D01*
X28928571Y-67807142D01*
X28757142Y-67807142D01*
X28642857Y-67750000D01*
X28585714Y-67692857D01*
X28528571Y-67578571D01*
X28528571Y-67121428D01*
X29157142Y-68150000D02*
X29157142Y-68835714D01*
X27957142Y-68492857D02*
X29157142Y-68492857D01*
%TO.C,JP1*%
X21457142Y-104147142D02*
X22657142Y-104147142D01*
X22657142Y-104604285D01*
X22600000Y-104718571D01*
X22542857Y-104775714D01*
X22428571Y-104832857D01*
X22257142Y-104832857D01*
X22142857Y-104775714D01*
X22085714Y-104718571D01*
X22028571Y-104604285D01*
X22028571Y-104147142D01*
X21457142Y-106032857D02*
X22028571Y-105632857D01*
X21457142Y-105347142D02*
X22657142Y-105347142D01*
X22657142Y-105804285D01*
X22600000Y-105918571D01*
X22542857Y-105975714D01*
X22428571Y-106032857D01*
X22257142Y-106032857D01*
X22142857Y-105975714D01*
X22085714Y-105918571D01*
X22028571Y-105804285D01*
X22028571Y-105347142D01*
X22657142Y-106775714D02*
X22657142Y-107004285D01*
X22600000Y-107118571D01*
X22485714Y-107232857D01*
X22257142Y-107290000D01*
X21857142Y-107290000D01*
X21628571Y-107232857D01*
X21514285Y-107118571D01*
X21457142Y-107004285D01*
X21457142Y-106775714D01*
X21514285Y-106661428D01*
X21628571Y-106547142D01*
X21857142Y-106490000D01*
X22257142Y-106490000D01*
X22485714Y-106547142D01*
X22600000Y-106661428D01*
X22657142Y-106775714D01*
X22600000Y-108432857D02*
X22657142Y-108318571D01*
X22657142Y-108147142D01*
X22600000Y-107975714D01*
X22485714Y-107861428D01*
X22371428Y-107804285D01*
X22142857Y-107747142D01*
X21971428Y-107747142D01*
X21742857Y-107804285D01*
X21628571Y-107861428D01*
X21514285Y-107975714D01*
X21457142Y-108147142D01*
X21457142Y-108261428D01*
X21514285Y-108432857D01*
X21571428Y-108490000D01*
X21971428Y-108490000D01*
X21971428Y-108261428D01*
%TO.C,JP2*%
X61057142Y-101185714D02*
X61057142Y-101871428D01*
X59857142Y-101528571D02*
X61057142Y-101528571D01*
X61057142Y-102271428D02*
X60085714Y-102271428D01*
X59971428Y-102328571D01*
X59914285Y-102385714D01*
X59857142Y-102500000D01*
X59857142Y-102728571D01*
X59914285Y-102842857D01*
X59971428Y-102900000D01*
X60085714Y-102957142D01*
X61057142Y-102957142D01*
X59857142Y-104214285D02*
X60428571Y-103814285D01*
X59857142Y-103528571D02*
X61057142Y-103528571D01*
X61057142Y-103985714D01*
X61000000Y-104100000D01*
X60942857Y-104157142D01*
X60828571Y-104214285D01*
X60657142Y-104214285D01*
X60542857Y-104157142D01*
X60485714Y-104100000D01*
X60428571Y-103985714D01*
X60428571Y-103528571D01*
X59857142Y-104728571D02*
X61057142Y-104728571D01*
X59857142Y-105414285D01*
X61057142Y-105414285D01*
X59742857Y-105700000D02*
X59742857Y-106614285D01*
X61057142Y-107128571D02*
X61057142Y-107357142D01*
X61000000Y-107471428D01*
X60885714Y-107585714D01*
X60657142Y-107642857D01*
X60257142Y-107642857D01*
X60028571Y-107585714D01*
X59914285Y-107471428D01*
X59857142Y-107357142D01*
X59857142Y-107128571D01*
X59914285Y-107014285D01*
X60028571Y-106900000D01*
X60257142Y-106842857D01*
X60657142Y-106842857D01*
X60885714Y-106900000D01*
X61000000Y-107014285D01*
X61057142Y-107128571D01*
X59857142Y-108157142D02*
X61057142Y-108157142D01*
X59857142Y-108842857D01*
X61057142Y-108842857D01*
%TO.C,R1*%
X68880952Y-103952380D02*
X68309523Y-103952380D01*
X68595238Y-103952380D02*
X68595238Y-102952380D01*
X68500000Y-103095238D01*
X68404761Y-103190476D01*
X68309523Y-103238095D01*
X69309523Y-103952380D02*
X69309523Y-102952380D01*
X69404761Y-103571428D02*
X69690476Y-103952380D01*
X69690476Y-103285714D02*
X69309523Y-103666666D01*
%TO.C,R2*%
X61280952Y-113152380D02*
X60709523Y-113152380D01*
X60995238Y-113152380D02*
X60995238Y-112152380D01*
X60900000Y-112295238D01*
X60804761Y-112390476D01*
X60709523Y-112438095D01*
X61709523Y-113152380D02*
X61709523Y-112152380D01*
X61804761Y-112771428D02*
X62090476Y-113152380D01*
X62090476Y-112485714D02*
X61709523Y-112866666D01*
%TO.C,R3*%
X55804761Y-110352380D02*
X55233333Y-110352380D01*
X55519047Y-110352380D02*
X55519047Y-109352380D01*
X55423809Y-109495238D01*
X55328571Y-109590476D01*
X55233333Y-109638095D01*
X56423809Y-109352380D02*
X56519047Y-109352380D01*
X56614285Y-109400000D01*
X56661904Y-109447619D01*
X56709523Y-109542857D01*
X56757142Y-109733333D01*
X56757142Y-109971428D01*
X56709523Y-110161904D01*
X56661904Y-110257142D01*
X56614285Y-110304761D01*
X56519047Y-110352380D01*
X56423809Y-110352380D01*
X56328571Y-110304761D01*
X56280952Y-110257142D01*
X56233333Y-110161904D01*
X56185714Y-109971428D01*
X56185714Y-109733333D01*
X56233333Y-109542857D01*
X56280952Y-109447619D01*
X56328571Y-109400000D01*
X56423809Y-109352380D01*
X57185714Y-110352380D02*
X57185714Y-109352380D01*
X57280952Y-109971428D02*
X57566666Y-110352380D01*
X57566666Y-109685714D02*
X57185714Y-110066666D01*
%TO.C,R4*%
X55704761Y-118352380D02*
X55133333Y-118352380D01*
X55419047Y-118352380D02*
X55419047Y-117352380D01*
X55323809Y-117495238D01*
X55228571Y-117590476D01*
X55133333Y-117638095D01*
X56323809Y-117352380D02*
X56419047Y-117352380D01*
X56514285Y-117400000D01*
X56561904Y-117447619D01*
X56609523Y-117542857D01*
X56657142Y-117733333D01*
X56657142Y-117971428D01*
X56609523Y-118161904D01*
X56561904Y-118257142D01*
X56514285Y-118304761D01*
X56419047Y-118352380D01*
X56323809Y-118352380D01*
X56228571Y-118304761D01*
X56180952Y-118257142D01*
X56133333Y-118161904D01*
X56085714Y-117971428D01*
X56085714Y-117733333D01*
X56133333Y-117542857D01*
X56180952Y-117447619D01*
X56228571Y-117400000D01*
X56323809Y-117352380D01*
X57085714Y-118352380D02*
X57085714Y-117352380D01*
X57180952Y-117971428D02*
X57466666Y-118352380D01*
X57466666Y-117685714D02*
X57085714Y-118066666D01*
%TO.C,R5*%
X42347619Y-98404761D02*
X42347619Y-97833333D01*
X42347619Y-98119047D02*
X43347619Y-98119047D01*
X43204761Y-98023809D01*
X43109523Y-97928571D01*
X43061904Y-97833333D01*
X43347619Y-99023809D02*
X43347619Y-99119047D01*
X43300000Y-99214285D01*
X43252380Y-99261904D01*
X43157142Y-99309523D01*
X42966666Y-99357142D01*
X42728571Y-99357142D01*
X42538095Y-99309523D01*
X42442857Y-99261904D01*
X42395238Y-99214285D01*
X42347619Y-99119047D01*
X42347619Y-99023809D01*
X42395238Y-98928571D01*
X42442857Y-98880952D01*
X42538095Y-98833333D01*
X42728571Y-98785714D01*
X42966666Y-98785714D01*
X43157142Y-98833333D01*
X43252380Y-98880952D01*
X43300000Y-98928571D01*
X43347619Y-99023809D01*
X42347619Y-99785714D02*
X43347619Y-99785714D01*
X42728571Y-99880952D02*
X42347619Y-100166666D01*
X43014285Y-100166666D02*
X42633333Y-99785714D01*
%TO.C,R6*%
X45447619Y-98404761D02*
X45447619Y-97833333D01*
X45447619Y-98119047D02*
X46447619Y-98119047D01*
X46304761Y-98023809D01*
X46209523Y-97928571D01*
X46161904Y-97833333D01*
X46447619Y-99023809D02*
X46447619Y-99119047D01*
X46400000Y-99214285D01*
X46352380Y-99261904D01*
X46257142Y-99309523D01*
X46066666Y-99357142D01*
X45828571Y-99357142D01*
X45638095Y-99309523D01*
X45542857Y-99261904D01*
X45495238Y-99214285D01*
X45447619Y-99119047D01*
X45447619Y-99023809D01*
X45495238Y-98928571D01*
X45542857Y-98880952D01*
X45638095Y-98833333D01*
X45828571Y-98785714D01*
X46066666Y-98785714D01*
X46257142Y-98833333D01*
X46352380Y-98880952D01*
X46400000Y-98928571D01*
X46447619Y-99023809D01*
X45447619Y-99785714D02*
X46447619Y-99785714D01*
X45828571Y-99880952D02*
X45447619Y-100166666D01*
X46114285Y-100166666D02*
X45733333Y-99785714D01*
%TO.C,R7*%
X37297619Y-98379761D02*
X37297619Y-97808333D01*
X37297619Y-98094047D02*
X38297619Y-98094047D01*
X38154761Y-97998809D01*
X38059523Y-97903571D01*
X38011904Y-97808333D01*
X38297619Y-98998809D02*
X38297619Y-99094047D01*
X38250000Y-99189285D01*
X38202380Y-99236904D01*
X38107142Y-99284523D01*
X37916666Y-99332142D01*
X37678571Y-99332142D01*
X37488095Y-99284523D01*
X37392857Y-99236904D01*
X37345238Y-99189285D01*
X37297619Y-99094047D01*
X37297619Y-98998809D01*
X37345238Y-98903571D01*
X37392857Y-98855952D01*
X37488095Y-98808333D01*
X37678571Y-98760714D01*
X37916666Y-98760714D01*
X38107142Y-98808333D01*
X38202380Y-98855952D01*
X38250000Y-98903571D01*
X38297619Y-98998809D01*
X37297619Y-99760714D02*
X38297619Y-99760714D01*
X37678571Y-99855952D02*
X37297619Y-100141666D01*
X37964285Y-100141666D02*
X37583333Y-99760714D01*
%TO.C,TP3*%
X63838095Y-111252380D02*
X64409523Y-111252380D01*
X64123809Y-112252380D02*
X64123809Y-111252380D01*
X64742857Y-112252380D02*
X64742857Y-111252380D01*
X65123809Y-111252380D01*
X65219047Y-111300000D01*
X65266666Y-111347619D01*
X65314285Y-111442857D01*
X65314285Y-111585714D01*
X65266666Y-111680952D01*
X65219047Y-111728571D01*
X65123809Y-111776190D01*
X64742857Y-111776190D01*
X65647619Y-111252380D02*
X66266666Y-111252380D01*
X65933333Y-111633333D01*
X66076190Y-111633333D01*
X66171428Y-111680952D01*
X66219047Y-111728571D01*
X66266666Y-111823809D01*
X66266666Y-112061904D01*
X66219047Y-112157142D01*
X66171428Y-112204761D01*
X66076190Y-112252380D01*
X65790476Y-112252380D01*
X65695238Y-112204761D01*
X65647619Y-112157142D01*
%TO.C,TP4*%
X57338095Y-115352380D02*
X57909523Y-115352380D01*
X57623809Y-116352380D02*
X57623809Y-115352380D01*
X58242857Y-116352380D02*
X58242857Y-115352380D01*
X58623809Y-115352380D01*
X58719047Y-115400000D01*
X58766666Y-115447619D01*
X58814285Y-115542857D01*
X58814285Y-115685714D01*
X58766666Y-115780952D01*
X58719047Y-115828571D01*
X58623809Y-115876190D01*
X58242857Y-115876190D01*
X59671428Y-115685714D02*
X59671428Y-116352380D01*
X59433333Y-115304761D02*
X59195238Y-116019047D01*
X59814285Y-116019047D01*
%TO.C,SW1*%
X65000000Y-115385714D02*
X65171428Y-115442857D01*
X65457142Y-115442857D01*
X65571428Y-115385714D01*
X65628571Y-115328571D01*
X65685714Y-115214285D01*
X65685714Y-115100000D01*
X65628571Y-114985714D01*
X65571428Y-114928571D01*
X65457142Y-114871428D01*
X65228571Y-114814285D01*
X65114285Y-114757142D01*
X65057142Y-114700000D01*
X65000000Y-114585714D01*
X65000000Y-114471428D01*
X65057142Y-114357142D01*
X65114285Y-114300000D01*
X65228571Y-114242857D01*
X65514285Y-114242857D01*
X65685714Y-114300000D01*
X66085714Y-114242857D02*
X66371428Y-115442857D01*
X66600000Y-114585714D01*
X66828571Y-115442857D01*
X67114285Y-114242857D01*
X68200000Y-115442857D02*
X67514285Y-115442857D01*
X67857142Y-115442857D02*
X67857142Y-114242857D01*
X67742857Y-114414285D01*
X67628571Y-114528571D01*
X67514285Y-114585714D01*
%TO.C,BZ1*%
X30329047Y-93071428D02*
X31090952Y-93071428D01*
X30710000Y-93452380D02*
X30710000Y-92690476D01*
%TO.C,C1*%
X59452380Y-94104761D02*
X59500000Y-94152380D01*
X59547619Y-94247619D01*
X59547619Y-94485714D01*
X59500000Y-94580952D01*
X59452380Y-94628571D01*
X59357142Y-94676190D01*
X59261904Y-94676190D01*
X59119047Y-94628571D01*
X58547619Y-94057142D01*
X58547619Y-94676190D01*
X59452380Y-95057142D02*
X59500000Y-95104761D01*
X59547619Y-95200000D01*
X59547619Y-95438095D01*
X59500000Y-95533333D01*
X59452380Y-95580952D01*
X59357142Y-95628571D01*
X59261904Y-95628571D01*
X59119047Y-95580952D01*
X58547619Y-95009523D01*
X58547619Y-95628571D01*
X59547619Y-96247619D02*
X59547619Y-96342857D01*
X59500000Y-96438095D01*
X59452380Y-96485714D01*
X59357142Y-96533333D01*
X59166666Y-96580952D01*
X58928571Y-96580952D01*
X58738095Y-96533333D01*
X58642857Y-96485714D01*
X58595238Y-96438095D01*
X58547619Y-96342857D01*
X58547619Y-96247619D01*
X58595238Y-96152380D01*
X58642857Y-96104761D01*
X58738095Y-96057142D01*
X58928571Y-96009523D01*
X59166666Y-96009523D01*
X59357142Y-96057142D01*
X59452380Y-96104761D01*
X59500000Y-96152380D01*
X59547619Y-96247619D01*
X59547619Y-97200000D02*
X59547619Y-97295238D01*
X59500000Y-97390476D01*
X59452380Y-97438095D01*
X59357142Y-97485714D01*
X59166666Y-97533333D01*
X58928571Y-97533333D01*
X58738095Y-97485714D01*
X58642857Y-97438095D01*
X58595238Y-97390476D01*
X58547619Y-97295238D01*
X58547619Y-97200000D01*
X58595238Y-97104761D01*
X58642857Y-97057142D01*
X58738095Y-97009523D01*
X58928571Y-96961904D01*
X59166666Y-96961904D01*
X59357142Y-97009523D01*
X59452380Y-97057142D01*
X59500000Y-97104761D01*
X59547619Y-97200000D01*
X59214285Y-98390476D02*
X58547619Y-98390476D01*
X59214285Y-97961904D02*
X58690476Y-97961904D01*
X58595238Y-98009523D01*
X58547619Y-98104761D01*
X58547619Y-98247619D01*
X58595238Y-98342857D01*
X58642857Y-98390476D01*
X59071428Y-99200000D02*
X59071428Y-98866666D01*
X58547619Y-98866666D02*
X59547619Y-98866666D01*
X59547619Y-99342857D01*
%TO.C,Q1*%
X63371428Y-109914285D02*
X63542857Y-109971428D01*
X63600000Y-110028571D01*
X63657142Y-110142857D01*
X63657142Y-110314285D01*
X63600000Y-110428571D01*
X63542857Y-110485714D01*
X63428571Y-110542857D01*
X62971428Y-110542857D01*
X62971428Y-109342857D01*
X63371428Y-109342857D01*
X63485714Y-109400000D01*
X63542857Y-109457142D01*
X63600000Y-109571428D01*
X63600000Y-109685714D01*
X63542857Y-109800000D01*
X63485714Y-109857142D01*
X63371428Y-109914285D01*
X62971428Y-109914285D01*
X64857142Y-110428571D02*
X64800000Y-110485714D01*
X64628571Y-110542857D01*
X64514285Y-110542857D01*
X64342857Y-110485714D01*
X64228571Y-110371428D01*
X64171428Y-110257142D01*
X64114285Y-110028571D01*
X64114285Y-109857142D01*
X64171428Y-109628571D01*
X64228571Y-109514285D01*
X64342857Y-109400000D01*
X64514285Y-109342857D01*
X64628571Y-109342857D01*
X64800000Y-109400000D01*
X64857142Y-109457142D01*
X65257142Y-109342857D02*
X66000000Y-109342857D01*
X65600000Y-109800000D01*
X65771428Y-109800000D01*
X65885714Y-109857142D01*
X65942857Y-109914285D01*
X66000000Y-110028571D01*
X66000000Y-110314285D01*
X65942857Y-110428571D01*
X65885714Y-110485714D01*
X65771428Y-110542857D01*
X65428571Y-110542857D01*
X65314285Y-110485714D01*
X65257142Y-110428571D01*
X66457142Y-109457142D02*
X66514285Y-109400000D01*
X66628571Y-109342857D01*
X66914285Y-109342857D01*
X67028571Y-109400000D01*
X67085714Y-109457142D01*
X67142857Y-109571428D01*
X67142857Y-109685714D01*
X67085714Y-109857142D01*
X66400000Y-110542857D01*
X67142857Y-110542857D01*
X67542857Y-109342857D02*
X68342857Y-109342857D01*
X67828571Y-110542857D01*
D17*
X63321428Y-106321428D02*
X63273809Y-106464285D01*
X63226190Y-106511904D01*
X63130952Y-106559523D01*
X62988095Y-106559523D01*
X62892857Y-106511904D01*
X62845238Y-106464285D01*
X62797619Y-106369047D01*
X62797619Y-105988095D01*
X63797619Y-105988095D01*
X63797619Y-106321428D01*
X63750000Y-106416666D01*
X63702380Y-106464285D01*
X63607142Y-106511904D01*
X63511904Y-106511904D01*
X63416666Y-106464285D01*
X63369047Y-106416666D01*
X63321428Y-106321428D01*
X63321428Y-105988095D01*
X67271428Y-103185714D02*
X67271428Y-103519047D01*
X66747619Y-103661904D02*
X66747619Y-103185714D01*
X67747619Y-103185714D01*
X67747619Y-103661904D01*
X66942857Y-108909523D02*
X66895238Y-108861904D01*
X66847619Y-108719047D01*
X66847619Y-108623809D01*
X66895238Y-108480952D01*
X66990476Y-108385714D01*
X67085714Y-108338095D01*
X67276190Y-108290476D01*
X67419047Y-108290476D01*
X67609523Y-108338095D01*
X67704761Y-108385714D01*
X67800000Y-108480952D01*
X67847619Y-108623809D01*
X67847619Y-108719047D01*
X67800000Y-108861904D01*
X67752380Y-108909523D01*
%TD*%
M02*
