<?xml version="1.0" encoding="UTF-8" standalone="no"?>
<svg
   xmlns:dc="http://purl.org/dc/elements/1.1/"
   xmlns:cc="http://creativecommons.org/ns#"
   xmlns:rdf="http://www.w3.org/1999/02/22-rdf-syntax-ns#"
   xmlns:svg="http://www.w3.org/2000/svg"
   xmlns="http://www.w3.org/2000/svg"
   xmlns:sodipodi="http://sodipodi.sourceforge.net/DTD/sodipodi-0.dtd"
   xmlns:inkscape="http://www.inkscape.org/namespaces/inkscape"
   width="210mm"
   height="297mm"
   viewBox="0 0 210 297"
   version="1.1"
   id="svg8"
   inkscape:version="1.0.2-2 (e86c870879, 2021-01-15)"
   sodipodi:docname="clock.svg">
  <defs
     id="defs2" />
  <sodipodi:namedview
     id="base"
     pagecolor="#ffffff"
     bordercolor="#666666"
     borderopacity="1.0"
     inkscape:pageopacity="0.0"
     inkscape:pageshadow="2"
     inkscape:zoom="0.98994949"
     inkscape:cx="313.80994"
     inkscape:cy="343.54231"
     inkscape:document-units="mm"
     inkscape:current-layer="layer1"
     inkscape:document-rotation="0"
     showgrid="false"
     inkscape:window-width="1920"
     inkscape:window-height="1017"
     inkscape:window-x="-8"
     inkscape:window-y="-8"
     inkscape:window-maximized="1" />
  <metadata
     id="metadata5">
    <rdf:RDF>
      <cc:Work
         rdf:about="">
        <dc:format>image/svg+xml</dc:format>
        <dc:type
           rdf:resource="http://purl.org/dc/dcmitype/StillImage" />
        <dc:title></dc:title>
      </cc:Work>
    </rdf:RDF>
  </metadata>
  <g
     inkscape:label="Layer 1"
     inkscape:groupmode="layer"
     id="layer1">
    <g
       id="g119"
       transform="matrix(0.03965013,0,0,0.03965013,32.351645,70.905121)">
      <g
         id="g61">
	<g
   id="g59">
		<path
   d="M 189.156,0 C 84.858,0 0.001,84.858 0.001,189.155 0.001,293.453 84.858,378.31 189.156,378.31 293.46,378.31 378.31,293.453 378.31,189.155 378.31,84.858 293.46,0 189.156,0 Z m 0,347.144 c -87.117,0 -157.988,-70.87 -157.988,-157.988 0,-87.115 70.871,-157.988 157.988,-157.988 87.117,0 157.986,70.873 157.986,157.988 0,87.117 -70.87,157.988 -157.986,157.988 z"
   id="path55" />

		<path
   d="M 204.739,182.963 V 75.841 c 0,-8.606 -6.977,-15.584 -15.583,-15.584 -8.605,0 -15.582,6.978 -15.582,15.584 v 113.314 c 0,4.839 2.25,9.101 5.703,11.962 0.146,0.176 0.245,0.373 0.397,0.546 l 58.438,66.354 c 3.082,3.49 7.381,5.279 11.701,5.279 3.652,0 7.33,-1.276 10.289,-3.888 6.461,-5.692 7.084,-15.537 1.398,-21.998 z"
   id="path57" />

	</g>

</g>
      <g
         id="g63">
</g>
      <g
         id="g65">
</g>
      <g
         id="g67">
</g>
      <g
         id="g69">
</g>
      <g
         id="g71">
</g>
      <g
         id="g73">
</g>
      <g
         id="g75">
</g>
      <g
         id="g77">
</g>
      <g
         id="g79">
</g>
      <g
         id="g81">
</g>
      <g
         id="g83">
</g>
      <g
         id="g85">
</g>
      <g
         id="g87">
</g>
      <g
         id="g89">
</g>
      <g
         id="g91">
</g>
    </g>
  </g>
</svg>
